<?xml version="1.0" standalone="no"?>
<!DOCTYPE svg PUBLIC "-//W3C//DTD SVG 20010904//EN"
 "http://www.w3.org/TR/2001/REC-SVG-20010904/DTD/svg10.dtd">
<svg version="1.0" xmlns="http://www.w3.org/2000/svg"
 width="450.000000pt" height="450.000000pt" viewBox="0 0 450.000000 450.000000"
 preserveAspectRatio="xMidYMid meet">

<g transform="translate(0.000000,450.000000) scale(0.100000,-0.100000)"
fill="#000000" stroke="none">
<path d="M2075 4349 c-391 -25 -810 -186 -1125 -432 -88 -69 -259 -236 -330
-323 -241 -293 -403 -661 -456 -1040 -22 -158 -21 -422 1 -574 138 -941 877
-1664 1819 -1780 133 -16 404 -13 537 6 676 97 1259 514 1567 1122 410 808
253 1781 -391 2423 -424 423 -1009 639 -1622 598z m455 -658 c340 -69 526
-239 576 -524 18 -102 14 -225 -10 -315 -36 -133 -133 -280 -277 -417 -265
-253 -328 -321 -360 -388 -19 -41 -33 -90 -36 -127 l-6 -60 -260 0 -260 0 6
59 c17 158 73 239 367 531 133 132 248 255 263 280 73 130 88 316 35 431 -47
103 -119 165 -244 210 -50 19 -80 22 -204 22 -197 0 -345 -36 -559 -134 -46
-22 -85 -39 -87 -39 -2 0 -4 81 -4 180 l0 179 68 21 c122 38 285 78 387 94 55
9 111 18 125 20 64 12 388 -4 480 -23z m-519 -1198 c-97 -98 -177 -175 -179
-171 -2 4 4 32 12 62 23 78 86 167 151 211 52 36 142 74 176 75 9 0 -63 -80
-160 -177z m-436 -420 c19 -66 57 -144 91 -190 19 -25 24 -44 24 -93 0 -112
32 -140 160 -140 61 0 98 -6 157 -27 71 -25 91 -28 223 -28 139 0 149 2 243
34 104 36 129 52 242 166 80 80 133 165 165 265 l23 70 533 0 c532 0 534 0
534 -21 0 -40 -22 -166 -47 -264 -49 -197 -148 -411 -271 -585 -85 -121 -289
-326 -412 -413 -112 -79 -339 -194 -465 -236 -555 -181 -1153 -83 -1614 264
-115 87 -294 270 -375 384 -162 227 -272 501 -310 775 l-13 96 548 0 548 0 16
-57z"/>
<path d="M1741 1536 c-49 -27 -50 -34 -51 -444 0 -416 1 -426 55 -450 41 -19
787 -17 824 2 50 26 51 38 51 446 0 408 -1 420 -51 446 -39 20 -792 20 -828 0z
m679 -446 l0 -250 -260 0 -260 0 0 250 0 250 260 0 260 0 0 -250z"/>
</g>
</svg>
