<svg xmlns="http://www.w3.org/2000/svg" width="595" height="594" viewBox="0 0 595 594" version="1.1"><path d="M 286.091 126.055 L 275.682 126.880 265.359 128.499 L 255.036 130.118 244.768 132.576 L 234.500 135.034 223.750 138.147 L 213 141.259 213 159.531 L 213 177.804 222.750 173.392 L 232.500 168.981 244.624 165.017 L 256.749 161.054 265.505 159.527 L 274.262 158 288.381 158.015 L 302.500 158.030 308.912 159.541 L 315.324 161.052 321.699 164.095 L 328.074 167.137 334.541 173.187 L 341.008 179.236 344.505 186.368 L 348.002 193.500 349.001 198.886 L 350 204.273 350 211.426 L 350 218.580 348.468 224.540 L 346.937 230.500 343.503 237.781 L 340.069 245.062 335.659 250.781 L 331.248 256.500 318.871 268.500 L 306.494 280.500 299.630 286.500 L 292.766 292.500 285.397 300.875 L 278.029 309.250 274.305 314.860 L 270.581 320.470 268.296 326.767 L 266.010 333.063 265.367 338.532 L 264.725 344 292.862 344 L 321 344 321 341.052 L 321 338.103 323.476 330.302 L 325.952 322.500 329.638 317 L 333.323 311.500 344.912 299.994 L 356.500 288.488 368.211 277.709 L 379.923 266.930 387.414 256.984 L 394.906 247.039 398.540 239.483 L 402.174 231.927 404.191 222.214 L 406.208 212.500 405.657 201 L 405.106 189.500 403.462 183 L 401.818 176.500 397.690 168 L 393.563 159.500 386.523 152.500 L 379.482 145.500 371.714 141.121 L 363.945 136.743 355.722 133.937 L 347.500 131.131 340 129.613 L 332.500 128.094 323.500 127.100 L 314.500 126.106 305.500 125.668 L 296.500 125.230 286.091 126.055 M 287.108 249.082 L 282.717 249.944 276.608 252.808 L 270.500 255.673 264.846 260.849 L 259.193 266.025 256.174 270.762 L 253.156 275.500 251.078 281.718 L 249 287.937 249 290.520 L 249 293.104 254.195 286.802 L 259.389 280.500 268.945 270.922 L 278.500 261.345 285.961 254.672 L 293.421 248 292.461 248.110 L 291.500 248.219 287.108 249.082 M 82 318.325 L 82 321.650 84.056 333.075 L 86.112 344.500 88.638 353.500 L 91.163 362.500 94.695 372 L 98.227 381.500 104.073 393 L 109.919 404.500 116.426 414.288 L 122.934 424.076 129.217 431.781 L 135.500 439.485 145.448 449.334 L 155.395 459.183 165.691 466.913 L 175.987 474.644 186.702 481.026 L 197.416 487.409 207.958 492.087 L 218.500 496.765 226.500 499.429 L 234.500 502.092 244.318 504.580 L 254.136 507.069 263.818 508.554 L 273.500 510.039 288 510.654 L 302.500 511.268 315 510.077 L 327.500 508.885 337.312 506.911 L 347.123 504.937 355.812 499.533 L 364.500 494.130 372.598 487.616 L 380.696 481.103 389.321 472.536 L 397.945 463.969 404.543 455.797 L 411.141 447.625 417.494 438.062 L 423.847 428.500 429.853 417 L 435.859 405.500 439.941 395.202 L 444.022 384.904 447.408 373.702 L 450.794 362.500 452.854 352.500 L 454.913 342.500 456.457 330.699 L 458 318.898 458 316.937 L 458 314.977 418.906 315.238 L 379.812 315.500 377.572 322.500 L 375.333 329.500 372.547 335 L 369.761 340.500 365.475 346.500 L 361.188 352.500 357.094 356.453 L 353 360.406 353 361.802 L 353 363.198 351.377 366.619 L 349.753 370.039 346.686 372.223 L 343.619 374.408 335.559 375.100 L 327.500 375.793 320.500 378.072 L 313.500 380.351 297.500 380.351 L 281.500 380.351 274.500 378.043 L 267.500 375.734 255 375.117 L 242.500 374.500 239.373 372.270 L 236.247 370.039 234.623 366.619 L 233 363.198 233 357.418 L 233 351.639 227.980 344.377 L 222.960 337.115 220.075 330.308 L 217.190 323.500 216.056 319.250 L 214.923 315 148.461 315 L 82 315 82 318.325 M 241.218 383.663 L 237.936 385.281 235.718 388.390 L 233.500 391.500 233.500 441 L 233.500 490.500 235.730 493.627 L 237.961 496.753 241.381 498.377 L 244.802 500 293 500 L 341.198 500 344.619 498.377 L 348.039 496.753 350.270 493.627 L 352.500 490.500 352.500 441 L 352.500 391.500 350.270 388.373 L 348.039 385.247 344.619 383.623 L 341.198 382 292.849 382.023 L 244.500 382.046 241.218 383.663 M 264 441 L 264 469 292.500 469 L 321 469 321 441 L 321 413 292.500 413 L 264 413 264 441" stroke="none" fill="#ffffff" fill-rule="evenodd"/><path d="M 286.750 125.723 L 290 126.127 293.250 125.723 L 296.500 125.320 290 125.320 L 283.500 125.320 286.750 125.723 M 306.750 125.723 L 310 126.127 313.250 125.723 L 316.500 125.320 310 125.320 L 303.500 125.320 306.750 125.723 M 276.250 126.689 L 278 127.147 279.750 126.689 L 281.500 126.232 278 126.232 L 274.500 126.232 276.250 126.689 M 320.250 126.689 L 322 127.147 323.750 126.689 L 325.500 126.232 322 126.232 L 318.500 126.232 320.250 126.689 M 268.269 127.693 L 270.038 128.154 271.269 127.656 L 272.500 127.158 269.500 127.195 L 266.500 127.232 268.269 127.693 M 328.750 127.662 L 330 128.167 331.250 127.662 L 332.500 127.158 330 127.158 L 327.500 127.158 328.750 127.662 M 261.750 128.662 L 263 129.167 264.250 128.662 L 265.500 128.158 263 128.158 L 260.500 128.158 261.750 128.662 M 334.750 128.662 L 336 129.167 337.250 128.662 L 338.500 128.158 336 128.158 L 333.500 128.158 334.750 128.662 M 256.813 129.683 L 258.125 130.208 258.729 129.604 L 259.333 129 257.417 129.079 L 255.500 129.158 256.813 129.683 M 340.813 129.683 L 342.125 130.208 342.729 129.604 L 343.333 129 341.417 129.079 L 339.500 129.158 340.813 129.683 M 251.813 130.683 L 253.125 131.208 253.729 130.604 L 254.333 130 252.417 130.079 L 250.500 130.158 251.813 130.683 M 344.813 130.683 L 346.125 131.208 346.729 130.604 L 347.333 130 345.417 130.079 L 343.500 130.158 344.813 130.683 M 246.813 131.683 L 248.125 132.208 248.729 131.604 L 249.333 131 247.417 131.079 L 245.500 131.158 246.813 131.683 M 348.333 131.667 L 349 132.333 349.667 131.667 L 350.333 131 349 131 L 347.667 131 348.333 131.667 M 242.813 132.683 L 244.125 133.208 244.729 132.604 L 245.333 132 243.417 132.079 L 241.500 132.158 242.813 132.683 M 352.333 132.667 L 353 133.333 353.667 132.667 L 354.333 132 353 132 L 351.667 132 352.333 132.667 M 238.813 133.683 L 240.125 134.208 240.729 133.604 L 241.333 133 239.417 133.079 L 237.500 133.158 238.813 133.683 M 355.333 133.667 L 356 134.333 356.667 133.667 L 357.333 133 356 133 L 354.667 133 355.333 133.667 M 234.813 134.683 L 236.125 135.208 236.729 134.604 L 237.333 134 235.417 134.079 L 233.500 134.158 234.813 134.683 M 358 134.500 L 358 135 358.500 135 L 359 135 359 134.500 L 359 134 358.500 134 L 358 134 358 134.500 M 231.333 135.667 L 232 136.333 232.667 135.667 L 233.333 135 232 135 L 230.667 135 231.333 135.667 M 360.333 135.667 L 361 136.333 361.667 135.667 L 362.333 135 361 135 L 359.667 135 360.333 135.667 M 227.333 136.667 L 228 137.333 228.667 136.667 L 229.333 136 228 136 L 226.667 136 227.333 136.667 M 363 136.500 L 363 137 363.500 137 L 364 137 364 136.500 L 364 136 363.500 136 L 363 136 363 136.500 M 223.813 137.683 L 225.125 138.208 225.729 137.604 L 226.333 137 224.417 137.079 L 222.500 137.158 223.813 137.683 M 365 137.500 L 365 138 365.500 138 L 366 138 366 137.500 L 366 137 365.500 137 L 365 137 365 137.500 M 220.333 138.667 L 221 139.333 221.667 138.667 L 222.333 138 221 138 L 219.667 138 220.333 138.667 M 367 138.500 L 367 139 367.500 139 L 368 139 368 138.500 L 368 138 367.500 138 L 367 138 367 138.500 M 217.333 139.667 L 218 140.333 218.667 139.667 L 219.333 139 218 139 L 216.667 139 217.333 139.667 M 369 139.500 L 369 140 369.500 140 L 370 140 370 139.500 L 370 139 369.500 139 L 369 139 369 139.500 M 214.333 140.667 L 215 141.333 215.667 140.667 L 216.333 140 215 140 L 213.667 140 214.333 140.667 M 371 140.430 L 371 140.930 373 142 L 375 143.070 375 142.570 L 375 142.070 373 141 L 371 139.930 371 140.430 M 376.500 144 L 377.118 145 377.618 145 L 378.118 145 377.500 144 L 376.882 143 376.382 143 L 375.882 143 376.500 144 M 379 145.378 L 379 145.755 380.750 147.128 L 382.500 148.500 381.128 146.750 L 379.755 145 379.378 145 L 379 145 379 145.378 M 386.500 152 L 390.406 156 390.906 156 L 391.406 156 387.500 152 L 383.594 148 383.094 148 L 382.594 148 386.500 152 M 391 157.378 L 391 157.755 392.750 159.128 L 394.500 160.500 393.128 158.750 L 391.755 157 391.378 157 L 391 157 391 157.378 M 273.762 158.707 L 276.023 159.142 277.762 158.687 L 279.500 158.232 275.500 158.252 L 271.500 158.272 273.762 158.707 M 299.250 158.689 L 301 159.147 302.750 158.689 L 304.500 158.232 301 158.232 L 297.500 158.232 299.250 158.689 M 265.750 159.662 L 267 160.167 268.250 159.662 L 269.500 159.158 267 159.158 L 264.500 159.158 265.750 159.662 M 306.813 159.683 L 308.125 160.208 308.729 159.604 L 309.333 159 307.417 159.079 L 305.500 159.158 306.813 159.683 M 260.813 160.683 L 262.125 161.208 262.729 160.604 L 263.333 160 261.417 160.079 L 259.500 160.158 260.813 160.683 M 310.813 160.683 L 312.125 161.208 312.729 160.604 L 313.333 160 311.417 160.079 L 309.500 160.158 310.813 160.683 M 256.333 161.667 L 257 162.333 257.667 161.667 L 258.333 161 257 161 L 255.667 161 256.333 161.667 M 314.333 161.667 L 315 162.333 315.667 161.667 L 316.333 161 315 161 L 313.667 161 314.333 161.667 M 395 163 L 396.070 165 396.570 165 L 397.070 165 396 163 L 394.930 161 394.430 161 L 393.930 161 395 163 M 252.813 162.683 L 254.125 163.208 254.729 162.604 L 255.333 162 253.417 162.079 L 251.500 162.158 252.813 162.683 M 317 162.500 L 317 163 317.500 163 L 318 163 318 162.500 L 318 162 317.500 162 L 317 162 317 162.500 M 249.333 163.667 L 250 164.333 250.667 163.667 L 251.333 163 250 163 L 248.667 163 249.333 163.667 M 319.083 163.373 L 319.500 163.746 322.750 165.399 L 326 167.051 326 166.551 L 326 166.051 323.050 164.526 L 320.099 163 319.383 163 L 318.667 163 319.083 163.373 M 246.333 164.667 L 247 165.333 247.667 164.667 L 248.333 164 247 164 L 245.667 164 246.333 164.667 M 243.333 165.667 L 244 166.333 244.667 165.667 L 245.333 165 244 165 L 242.667 165 243.333 165.667 M 240.333 166.667 L 241 167.333 241.667 166.667 L 242.333 166 241 166 L 239.667 166 240.333 166.667 M 397 166.500 L 397 167 397.500 167 L 398 167 398 166.500 L 398 166 397.500 166 L 397 166 397 166.500 M 237.333 167.667 L 238 168.333 238.667 167.667 L 239.333 167 238 167 L 236.667 167 237.333 167.667 M 327.500 168 L 328.118 169 328.618 169 L 329.118 169 328.500 168 L 327.882 167 327.382 167 L 326.882 167 327.500 168 M 234.333 168.667 L 235 169.333 235.667 168.667 L 236.333 168 235 168 L 233.667 168 234.333 168.667 M 398 168.500 L 398 169 398.500 169 L 399 169 399 168.500 L 399 168 398.500 168 L 398 168 398 168.500 M 232 169.500 L 232 170 232.500 170 L 233 170 233 169.500 L 233 169 232.500 169 L 232 169 232 169.500 M 335 174.500 L 340.432 180 340.932 180 L 341.432 180 336 174.500 L 330.568 169 330.068 169 L 329.568 169 335 174.500 M 229.333 170.667 L 230 171.333 230.667 170.667 L 231.333 170 230 170 L 228.667 170 229.333 170.667 M 399 170.500 L 399 171 399.500 171 L 400 171 400 170.500 L 400 170 399.500 170 L 399 170 399 170.500 M 227 171.500 L 227 172 227.500 172 L 228 172 228 171.500 L 228 171 227.500 171 L 227 171 227 171.500 M 225 172.500 L 225 173 225.500 173 L 226 173 226 172.500 L 226 172 225.500 172 L 225 172 225 172.500 M 400.031 172.500 L 400.031 173.500 401 175 L 401.969 176.500 401.969 175.500 L 401.969 174.500 401 173 L 400.031 171.500 400.031 172.500 M 220 174.500 L 217.500 175.929 218.500 175.929 L 219.500 175.929 222 174.500 L 224.500 173.071 223.500 173.071 L 222.500 173.071 220 174.500 M 216 176.500 L 216 177 216.500 177 L 217 177 217 176.500 L 217 176 216.500 176 L 216 176 216 176.500 M 214 177.500 L 214 178 214.500 178 L 215 178 215 177.500 L 215 177 214.500 177 L 214 177 214 177.500 M 402.079 178.583 L 402.158 180.500 402.683 179.188 L 403.208 177.875 402.604 177.271 L 402 176.667 402.079 178.583 M 341.500 182 L 342.118 183 342.618 183 L 343.118 183 342.500 182 L 341.882 181 341.382 181 L 340.882 181 341.500 182 M 403 182 L 403 183.333 403.667 182.667 L 404.333 182 403.667 181.333 L 403 180.667 403 182 M 343 184.500 L 343 185 343.500 185 L 344 185 344 184.500 L 344 184 343.500 184 L 343 184 343 184.500 M 404.079 186.583 L 404.158 188.500 404.683 187.188 L 405.208 185.875 404.604 185.271 L 404 184.667 404.079 186.583 M 344 186.500 L 344 187 344.500 187 L 345 187 345 186.500 L 345 186 344.500 186 L 344 186 344 186.500 M 345 188.500 L 345 189 345.500 189 L 346 189 346 188.500 L 346 188 345.500 188 L 345 188 345 188.500 M 346 191 L 346 192.333 346.667 191.667 L 347.333 191 346.667 190.333 L 346 189.667 346 191 M 405.195 192.500 L 405.232 195.500 405.693 193.731 L 406.154 191.962 405.656 190.731 L 405.158 189.500 405.195 192.500 M 347 194 L 347 195.333 347.667 194.667 L 348.333 194 347.667 193.333 L 347 192.667 347 194 M 348.079 197.583 L 348.158 199.500 348.683 198.188 L 349.208 196.875 348.604 196.271 L 348 195.667 348.079 197.583 M 406.320 205 L 406.320 211.500 406.723 208.250 L 407.127 205 406.723 201.750 L 406.320 198.500 406.320 205 M 349.360 211 L 349.360 220.500 349.735 215.750 L 350.110 211 349.735 206.250 L 349.360 201.500 349.360 211 M 405.158 217 L 405.158 219.500 405.662 218.250 L 406.167 217 405.662 215.750 L 405.158 214.500 405.158 217 M 404.158 223 L 404.158 225.500 404.662 224.250 L 405.167 223 404.662 221.750 L 404.158 220.500 404.158 223 M 348.079 223.583 L 348.158 225.500 348.683 224.188 L 349.208 222.875 348.604 222.271 L 348 221.667 348.079 223.583 M 347 227 L 347 228.333 347.667 227.667 L 348.333 227 347.667 226.333 L 347 225.667 347 227 M 403 227 L 403 228.333 403.667 227.667 L 404.333 227 403.667 226.333 L 403 225.667 403 227 M 346 230 L 346 231.333 346.667 230.667 L 347.333 230 346.667 229.333 L 346 228.667 346 230 M 402 231 L 402 232.333 402.667 231.667 L 403.333 231 402.667 230.333 L 402 229.667 402 231 M 345 233 L 345 234.333 345.667 233.667 L 346.333 233 345.667 232.333 L 345 231.667 345 233 M 400.624 234.539 L 400 236.164 400.030 236.832 L 400.061 237.500 401.122 235.675 L 402.183 233.850 401.715 233.382 L 401.247 232.914 400.624 234.539 M 344 235.500 L 344 236 344.500 236 L 345 236 345 235.500 L 345 235 344.500 235 L 344 235 344 235.500 M 343 237.500 L 343 238 343.500 238 L 344 238 344 237.500 L 344 237 343.500 237 L 343 237 343 237.500 M 399 238.500 L 399 239 399.500 239 L 400 239 400 238.500 L 400 238 399.500 238 L 399 238 399 238.500 M 342 239.500 L 342 240 342.500 240 L 343 240 343 239.500 L 343 239 342.500 239 L 342 239 342 239.500 M 398 240.500 L 398 241 398.500 241 L 399 241 399 240.500 L 399 240 398.500 240 L 398 240 398 240.500 M 341 241.500 L 341 242 341.500 242 L 342 242 342 241.500 L 342 241 341.500 241 L 341 241 341 241.500 M 397 242.500 L 397 243 397.500 243 L 398 243 398 242.500 L 398 242 397.500 242 L 397 242 397 242.500 M 338.511 245.623 L 336.793 248.246 337.891 247.567 L 338.989 246.889 340.030 244.944 L 341.070 243 340.650 243 L 340.230 243 338.511 245.623 M 395 246 L 393.930 248 394.430 248 L 394.930 248 396 246 L 397.070 244 396.570 244 L 396.070 244 395 246 M 289.333 248.667 L 290 249.333 290.667 248.667 L 291.333 248 290 248 L 288.667 248 289.333 248.667 M 291.872 249.750 L 290.500 251.500 292.250 250.128 L 294 248.755 294 248.378 L 294 248 293.622 248 L 293.245 248 291.872 249.750 M 284 249.500 L 284 250 284.500 250 L 285 250 285 249.500 L 285 249 284.500 249 L 284 249 284 249.500 M 334.872 250.750 L 333.500 252.500 335.250 251.128 L 337 249.755 337 249.378 L 337 249 336.622 249 L 336.245 249 334.872 250.750 M 392.405 250.155 L 391.691 251.309 392.845 250.595 L 394 249.882 394 249.441 L 394 249 393.559 249 L 393.118 249 392.405 250.155 M 281 250.500 L 281 251 281.500 251 L 282 251 282 250.500 L 282 250 281.500 250 L 281 250 281 250.500 M 278 251.500 L 278 252 278.500 252 L 279 252 279 251.500 L 279 251 278.500 251 L 278 251 278 251.500 M 276 252.500 L 276 253 276.500 253 L 277 253 277 252.500 L 277 252 276.500 252 L 276 252 276 252.500 M 284.453 256.250 L 280.500 260.500 284.750 256.547 L 289 252.594 289 252.297 L 289 252 288.703 252 L 288.406 252 284.453 256.250 M 389.872 253.750 L 388.500 255.500 390.250 254.128 L 392 252.755 392 252.378 L 392 252 391.622 252 L 391.245 252 389.872 253.750 M 274 253.500 L 274 254 274.500 254 L 275 254 275 253.500 L 275 253 274.500 253 L 274 253 274 253.500 M 320.985 265.750 L 308.500 278.500 321.250 266.015 L 334 253.530 334 253.265 L 334 253 333.735 253 L 333.470 253 320.985 265.750 M 272 254.500 L 272 255 272.500 255 L 273 255 273 254.500 L 273 254 272.500 254 L 272 254 272 254.500 M 268.405 257.155 L 267.691 258.309 268.845 257.595 L 270 256.882 270 256.441 L 270 256 269.559 256 L 269.118 256 268.405 257.155 M 386.872 257.750 L 385.500 259.500 387.250 258.128 L 389 256.755 389 256.378 L 389 256 388.622 256 L 388.245 256 386.872 257.750 M 262.437 262.250 L 259.500 265.500 262.750 262.563 L 266 259.626 266 259.313 L 266 259 265.687 259 L 265.374 259 262.437 262.250 M 383.405 262.250 L 381.500 264.500 383.750 262.595 L 386 260.690 386 260.345 L 386 260 385.655 260 L 385.310 260 383.405 262.250 M 268.978 270.750 L 260.500 279.500 269.250 271.022 L 278 262.544 278 262.272 L 278 262 277.728 262 L 277.456 262 268.978 270.750 M 373.473 273.250 L 366.500 280.500 373.750 273.527 L 381 266.554 381 266.277 L 381 266 380.723 266 L 380.446 266 373.473 273.250 M 256.405 269.155 L 255.691 270.309 256.845 269.595 L 258 268.882 258 268.441 L 258 268 257.559 268 L 257.118 268 256.405 269.155 M 255 271.500 L 255 272 255.500 272 L 256 272 256 271.500 L 256 271 255.500 271 L 255 271 255 271.500 M 252 277.500 L 252 278 252.500 278 L 253 278 253 277.500 L 253 277 252.500 277 L 252 277 252 277.500 M 251 279.500 L 251 280 251.500 280 L 252 280 252 279.500 L 252 279 251.500 279 L 251 279 251 279.500 M 302 283.500 L 297.584 288 298.084 288 L 298.584 288 303 283.500 L 307.416 279 306.916 279 L 306.416 279 302 283.500 M 256.437 284.250 L 253.500 287.500 256.750 284.563 L 260 281.626 260 281.313 L 260 281 259.687 281 L 259.374 281 256.437 284.250 M 360.946 284.750 L 357.500 288.500 361.250 285.054 L 365 281.608 365 281.304 L 365 281 364.696 281 L 364.392 281 360.946 284.750 M 250 282.500 L 250 283 250.500 283 L 251 283 251 282.500 L 251 282 250.500 282 L 250 282 250 282.500 M 249 286.500 L 249 287 249.500 287 L 250 287 250 286.500 L 250 286 249.500 286 L 249 286 249 286.500 M 251.405 290.250 L 249.500 292.500 251.750 290.595 L 254 288.690 254 288.345 L 254 288 253.655 288 L 253.310 288 251.405 290.250 M 344.982 299.750 L 334.500 310.500 345.250 300.018 L 356 289.536 356 289.268 L 356 289 355.732 289 L 355.464 289 344.982 299.750 M 291.437 293.250 L 288.500 296.500 291.750 293.563 L 295 290.626 295 290.313 L 295 290 294.687 290 L 294.374 290 291.437 293.250 M 248 293.559 L 248 295.118 249.016 294.490 L 250.033 293.862 249.457 292.931 L 248.882 292 248.441 292 L 248 292 248 293.559 M 283.437 302.250 L 280.500 305.500 283.750 302.563 L 287 299.626 287 299.313 L 287 299 286.687 299 L 286.374 299 283.437 302.250 M 277.872 308.750 L 276.500 310.500 278.250 309.128 L 280 307.755 280 307.378 L 280 307 279.622 307 L 279.245 307 277.872 308.750 M 274.872 312.750 L 273.500 314.500 275.250 313.128 L 277 311.755 277 311.378 L 277 311 276.622 311 L 276.245 311 274.872 312.750 M 331.872 313.750 L 330.500 315.500 332.250 314.128 L 334 312.755 334 312.378 L 334 312 333.622 312 L 333.245 312 331.872 313.750 M 81.079 315.743 L 81.158 317.500 81.662 316.250 L 82.167 315 148.500 315 L 214.833 315 215.342 316.025 L 215.850 317.050 215.592 315.775 L 215.333 314.500 148.167 314.243 L 81 313.986 81.079 315.743 M 379.654 314.750 L 379.190 315.500 418.595 315.227 L 458 314.955 458 316.926 L 458 318.898 456.457 330.699 L 454.913 342.500 452.854 352.500 L 450.794 362.500 447.408 373.702 L 444.022 384.904 439.941 395.202 L 435.859 405.500 429.853 417 L 423.847 428.500 417.494 438.062 L 411.141 447.625 404.543 455.797 L 397.945 463.969 389.321 472.536 L 380.696 481.103 372.598 487.627 L 364.500 494.151 356.243 499.235 L 347.985 504.318 348.334 504.668 L 348.683 505.017 358.748 502.027 L 368.812 499.037 380.544 494.065 L 392.276 489.093 403.002 482.954 L 413.728 476.815 424.147 469.079 L 434.565 461.343 444.447 451.922 L 454.329 442.500 461.844 433.500 L 469.358 424.500 476.295 414 L 483.232 403.500 490.034 389.500 L 496.837 375.500 499.872 366.500 L 502.906 357.500 505.401 347.500 L 507.896 337.500 509.448 326.872 L 511 316.243 511 315.122 L 511 314 445.559 314 L 380.118 314 379.654 314.750 M 272 317 L 270.930 319 271.430 319 L 271.930 319 273 317 L 274.070 315 273.570 315 L 273.070 315 272 317 M 329.405 317.155 L 328.691 318.309 329.845 317.595 L 331 316.882 331 316.441 L 331 316 330.559 316 L 330.118 316 329.405 317.155 M 216 320 L 216 321.333 216.667 320.667 L 217.333 320 216.667 319.333 L 216 318.667 216 320 M 326.452 322.093 L 324.853 325.186 325.247 325.580 L 325.642 325.975 327.305 322.487 L 328.968 319 328.510 319 L 328.051 319 326.452 322.093 M 378 319.500 L 378 320 378.500 320 L 379 320 379 319.500 L 379 319 378.500 319 L 378 319 378 319.500 M 270 320.500 L 270 321 270.500 321 L 271 321 271 320.500 L 271 320 270.500 320 L 270 320 270 320.500 M 269 322.500 L 269 323 269.500 323 L 270 323 270 322.500 L 270 322 269.500 322 L 269 322 269 322.500 M 377 322.500 L 377 323 377.500 323 L 378 323 378 322.500 L 378 322 377.500 322 L 377 322 377 322.500 M 217 323.500 L 217 324 217.500 324 L 218 324 218 323.500 L 218 323 217.500 323 L 217 323 217 323.500 M 82 325 L 82 326.333 82.667 325.667 L 83.333 325 82.667 324.333 L 82 323.667 82 325 M 268 325 L 268 326.333 268.667 325.667 L 269.333 325 268.667 324.333 L 268 323.667 268 325 M 376 325.500 L 376 326 376.500 326 L 377 326 377 325.500 L 377 325 376.500 325 L 376 325 376 325.500 M 218 326.500 L 218 327 218.500 327 L 219 327 219 326.500 L 219 326 218.500 326 L 218 326 218 326.500 M 267 328 L 267 329.333 267.667 328.667 L 268.333 328 267.667 327.333 L 267 326.667 267 328 M 324 328 L 324 329.333 324.667 328.667 L 325.333 328 324.667 327.333 L 324 326.667 324 328 M 219 328.500 L 219 329 219.500 329 L 220 329 220 328.500 L 220 328 219.500 328 L 219 328 219 328.500 M 375 328.500 L 375 329 375.500 329 L 376 329 376 328.500 L 376 328 375.500 328 L 375 328 375 328.500 M 83 331 L 83 332.333 83.667 331.667 L 84.333 331 83.667 330.333 L 83 329.667 83 331 M 266 331 L 266 332.333 266.667 331.667 L 267.333 331 266.667 330.333 L 266 329.667 266 331 M 323 331 L 323 332.333 323.667 331.667 L 324.333 331 323.667 330.333 L 323 329.667 323 331 M 374 330.500 L 374 331 374.500 331 L 375 331 375 330.500 L 375 330 374.500 330 L 374 330 374 330.500 M 221 333.500 L 221 334 221.500 334 L 222 334 222 333.500 L 222 333 221.500 333 L 221 333 221 333.500 M 322 334 L 322 335.333 322.667 334.667 L 323.333 334 322.667 333.333 L 322 332.667 322 334 M 265.079 335.583 L 265.158 337.500 265.683 336.188 L 266.208 334.875 265.604 334.271 L 265 333.667 265.079 335.583 M 222 335.500 L 222 336 222.500 336 L 223 336 223 335.500 L 223 335 222.500 335 L 222 335 222 335.500 M 84 337 L 84 338.333 84.667 337.667 L 85.333 337 84.667 336.333 L 84 335.667 84 337 M 371 336.500 L 371 337 371.500 337 L 372 337 372 336.500 L 372 336 371.500 336 L 371 336 371 336.500 M 223 337.500 L 223 338 223.500 338 L 224 338 224 337.500 L 224 337 223.500 337 L 223 337 223 337.500 M 321.252 340.500 L 321.272 344.500 321.707 342.238 L 322.142 339.977 321.687 338.238 L 321.232 336.500 321.252 340.500 M 370 338.500 L 370 339 370.500 339 L 371 339 371 338.500 L 371 338 370.500 338 L 370 338 370 338.500 M 225 340.500 L 225 341 225.500 341 L 226 341 226 340.500 L 226 340 225.500 340 L 225 340 225 340.500 M 264.158 342 L 264.158 344.500 264.662 343.250 L 265.167 342 264.662 340.750 L 264.158 339.500 264.158 342 M 369 340.500 L 369 341 369.500 341 L 370 341 370 340.500 L 370 340 369.500 340 L 369 340 369 340.500 M 85 342 L 85 343.333 85.667 342.667 L 86.333 342 85.667 341.333 L 85 340.667 85 342 M 227 343.500 L 227 344 227.500 344 L 228 344 228 343.500 L 228 343 227.500 343 L 227 343 227 343.500 M 367 343.500 L 367 344 367.500 344 L 368 344 368 343.500 L 368 343 367.500 343 L 367 343 367 343.500 M 86 346.500 L 86 347 86.500 347 L 87 347 87 346.500 L 87 346 86.500 346 L 86 346 86 346.500 M 229 346.500 L 229 347 229.500 347 L 230 347 230 346.500 L 230 346 229.500 346 L 229 346 229 346.500 M 364.405 347.155 L 363.691 348.309 364.845 347.595 L 366 346.882 366 346.441 L 366 346 365.559 346 L 365.118 346 364.405 347.155 M 87 350 L 87 351.333 87.667 350.667 L 88.333 350 87.667 349.333 L 87 348.667 87 350 M 232 350.500 L 232 351 232.500 351 L 233 351 233 350.500 L 233 350 232.500 350 L 232 350 232 350.500 M 359.924 352.750 L 357.500 355.500 360.250 353.076 L 363 350.651 363 350.326 L 363 350 362.674 350 L 362.349 350 359.924 352.750 M 88 354 L 88 355.333 88.667 354.667 L 89.333 354 88.667 353.333 L 88 352.667 88 354 M 89 357.500 L 89 358 89.500 358 L 90 358 90 357.500 L 90 357 89.500 357 L 89 357 89 357.500 M 353.260 359.250 L 352.276 360.500 351.571 363.439 L 350.867 366.378 348.851 369.439 L 346.835 372.500 349.388 369.520 L 351.942 366.540 352.587 363.520 L 353.231 360.500 354.238 359.250 L 355.245 358 354.745 358 L 354.245 358 353.260 359.250 M 90 360.500 L 90 361 90.500 361 L 91 361 91 360.500 L 91 360 90.500 360 L 90 360 90 360.500 M 91 363.500 L 91 364 91.500 364 L 92 364 92 363.500 L 92 363 91.500 363 L 91 363 91 363.500 M 92 366.500 L 92 367 92.500 367 L 93 367 93 366.500 L 93 366 92.500 366 L 92 366 92 366.500 M 93 369.500 L 93 370 93.500 370 L 94 370 94 369.500 L 94 369 93.500 369 L 93 369 93 369.500 M 94 372.500 L 94 373 94.500 373 L 95 373 95 372.500 L 95 372 94.500 372 L 94 372 94 372.500 M 344.405 373.155 L 343.691 374.309 344.845 373.595 L 346 372.882 346 372.441 L 346 372 345.559 372 L 345.118 372 344.405 373.155 M 95 374.500 L 95 375 95.500 375 L 96 375 96 374.500 L 96 374 95.500 374 L 95 374 95 374.500 M 341 374.500 L 341 375 341.500 375 L 342 375 342 374.500 L 342 374 341.500 374 L 341 374 341 374.500 M 267 375.500 L 267 376 267.500 376 L 268 376 268 375.500 L 268 375 267.500 375 L 267 375 267 375.500 M 327 375.500 L 327 376 327.500 376 L 328 376 328 375.500 L 328 375 327.500 375 L 327 375 327 375.500 M 269 376.500 L 269 377 269.500 377 L 270 377 270 376.500 L 270 376 269.500 376 L 269 376 269 376.500 M 325 376.500 L 325 377 325.500 377 L 326 377 326 376.500 L 326 376 325.500 376 L 325 376 325 376.500 M 96 377.500 L 96 378 96.500 378 L 97 378 97 377.500 L 97 377 96.500 377 L 96 377 96 377.500 M 272.333 377.667 L 273 378.333 273.667 377.667 L 274.333 377 273 377 L 271.667 377 272.333 377.667 M 321.333 377.667 L 322 378.333 322.667 377.667 L 323.333 377 322 377 L 320.667 377 321.333 377.667 M 276 378.500 L 276 379 276.500 379 L 277 379 277 378.500 L 277 378 276.500 378 L 276 378 276 378.500 M 318 378.500 L 318 379 318.500 379 L 319 379 319 378.500 L 319 378 318.500 378 L 318 378 318 378.500 M 97 379.500 L 97 380 97.500 380 L 98 380 98 379.500 L 98 379 97.500 379 L 97 379 97 379.500 M 280.333 379.667 L 281 380.333 281.667 379.667 L 282.333 379 281 379 L 279.667 379 280.333 379.667 M 313.333 379.667 L 314 380.333 314.667 379.667 L 315.333 379 314 379 L 312.667 379 313.333 379.667 M 286.813 380.683 L 288.125 381.208 288.729 380.604 L 289.333 380 287.417 380.079 L 285.500 380.158 286.813 380.683 M 306.813 380.683 L 308.125 381.208 308.729 380.604 L 309.333 380 307.417 380.079 L 305.500 380.158 306.813 380.683 M 341 382.500 L 341 383 341.500 383 L 342 383 342 382.500 L 342 382 341.500 382 L 341 382 341 382.500 M 344.500 384 L 345.118 385 345.618 385 L 346.118 385 345.500 384 L 344.882 383 344.382 383 L 343.882 383 344.500 384 M 99 384.500 L 99 385 99.500 385 L 100 385 100 384.500 L 100 384 99.500 384 L 99 384 99 384.500 M 349.039 388 L 351.500 391.500 351.500 441 L 351.500 490.500 349.039 494 L 346.578 497.500 348.197 496.204 L 349.816 494.908 351.408 491.553 L 353 488.198 353 441 L 353 393.802 351.408 390.447 L 349.816 387.092 348.197 385.796 L 346.578 384.500 349.039 388 M 100 386.500 L 100 387 100.500 387 L 101 387 101 386.500 L 101 386 100.500 386 L 100 386 100 386.500 M 101 388.500 L 101 389 101.500 389 L 102 389 102 388.500 L 102 388 101.500 388 L 101 388 101 388.500 M 102 390.500 L 102 391 102.500 391 L 103 391 103 390.500 L 103 390 102.500 390 L 102 390 102 390.500 M 103 392.500 L 103 393 103.500 393 L 104 393 104 392.500 L 104 392 103.500 392 L 103 392 103 392.500 M 104 394.500 L 104 395 104.500 395 L 105 395 105 394.500 L 105 394 104.500 394 L 104 394 104 394.500 M 105 396.500 L 105 397 105.500 397 L 106 397 106 396.500 L 106 396 105.500 396 L 105 396 105 396.500 M 106 398.500 L 106 399 106.500 399 L 107 399 107 398.500 L 107 398 106.500 398 L 106 398 106 398.500 M 107 400.500 L 107 401 107.500 401 L 108 401 108 400.500 L 108 400 107.500 400 L 107 400 107 400.500 M 109 403.500 L 109 404 109.500 404 L 110 404 110 403.500 L 110 403 109.500 403 L 109 403 109 403.500 M 110 405.500 L 110 406 110.500 406 L 111 406 111 405.500 L 111 405 110.500 405 L 110 405 110 405.500 M 112 408.500 L 112 409 112.500 409 L 113 409 113 408.500 L 113 408 112.500 408 L 112 408 112 408.500 M 113.500 411 L 114.118 412 114.618 412 L 115.118 412 114.500 411 L 113.882 410 113.382 410 L 112.882 410 113.500 411 M 115 413.500 L 115 414 115.500 414 L 116 414 116 413.500 L 116 413 115.500 413 L 115 413 115 413.500 M 117 416.500 L 117 417 117.500 417 L 118 417 118 416.500 L 118 416 117.500 416 L 117 416 117 416.500 M 119.500 420 L 120.118 421 120.618 421 L 121.118 421 120.500 420 L 119.882 419 119.382 419 L 118.882 419 119.500 420 M 122 423.500 L 122 424 122.500 424 L 123 424 123 423.500 L 123 423 122.500 423 L 122 423 122 423.500 M 125.500 428 L 126.118 429 126.618 429 L 127.118 429 126.500 428 L 125.882 427 125.382 427 L 124.882 427 125.500 428 M 129.500 433 L 130.118 434 130.618 434 L 131.118 434 130.500 433 L 129.882 432 129.382 432 L 128.882 432 129.500 433 M 134 438.313 L 134 438.626 137.250 441.563 L 140.500 444.500 137.563 441.250 L 134.626 438 134.313 438 L 134 438 134 438.313 M 150 454.500 L 152.349 457 152.849 457 L 153.349 457 151 454.500 L 148.651 452 148.151 452 L 147.651 452 150 454.500 M 158.500 462 L 159.118 463 159.618 463 L 160.118 463 159.500 462 L 158.882 461 158.382 461 L 157.882 461 158.500 462 M 163.500 466 L 164.118 467 164.618 467 L 165.118 467 164.500 466 L 163.882 465 163.382 465 L 162.882 465 163.500 466 M 167.500 469 L 168.118 470 168.618 470 L 169.118 470 168.500 469 L 167.882 468 167.382 468 L 166.882 468 167.500 469 M 171 471.500 L 171 472 171.500 472 L 172 472 172 471.500 L 172 471 171.500 471 L 171 471 171 471.500 M 174 473.500 L 174 474 174.500 474 L 175 474 175 473.500 L 175 473 174.500 473 L 174 473 174 473.500 M 177 475.500 L 177 476 177.500 476 L 178 476 178 475.500 L 178 475 177.500 475 L 177 475 177 475.500 M 180 477.500 L 180 478 180.500 478 L 181 478 181 477.500 L 181 477 180.500 477 L 180 477 180 477.500 M 183 479.500 L 183 480 183.500 480 L 184 480 184 479.500 L 184 479 183.500 479 L 183 479 183 479.500 M 185 480.500 L 185 481 185.500 481 L 186 481 186 480.500 L 186 480 185.500 480 L 185 480 185 480.500 M 188 482.500 L 188 483 188.500 483 L 189 483 189 482.500 L 189 482 188.500 482 L 188 482 188 482.500 M 190 483.500 L 190 484 190.500 484 L 191 484 191 483.500 L 191 483 190.500 483 L 190 483 190 483.500 M 192 484.500 L 192 485 192.500 485 L 193 485 193 484.500 L 193 484 192.500 484 L 192 484 192 484.500 M 197 487.500 L 197 488 197.500 488 L 198 488 198 487.500 L 198 487 197.500 487 L 197 487 197 487.500 M 208 492.500 L 208 493 208.500 493 L 209 493 209 492.500 L 209 492 208.500 492 L 208 492 208 492.500 M 210 493.500 L 210 494 210.500 494 L 211 494 211 493.500 L 211 493 210.500 493 L 210 493 210 493.500 M 215 495.500 L 215 496 215.500 496 L 216 496 216 495.500 L 216 495 215.500 495 L 215 495 215 495.500 M 217 496.500 L 217 497 217.500 497 L 218 497 218 496.500 L 218 496 217.500 496 L 217 496 217 496.500 M 220 497.500 L 220 498 220.500 498 L 221 498 221 497.500 L 221 497 220.500 497 L 220 497 220 497.500 M 344.405 498.155 L 343.691 499.309 344.845 498.595 L 346 497.882 346 497.441 L 346 497 345.559 497 L 345.118 497 344.405 498.155 M 223 498.500 L 223 499 223.500 499 L 224 499 224 498.500 L 224 498 223.500 498 L 223 498 223 498.500 M 225 499.500 L 225 500 225.500 500 L 226 500 226 499.500 L 226 499 225.500 499 L 225 499 225 499.500 M 341 499.500 L 341 500 341.500 500 L 342 500 342 499.500 L 342 499 341.500 499 L 341 499 341 499.500 M 229 500.500 L 229 501 229.500 501 L 230 501 230 500.500 L 230 500 229.500 500 L 229 500 229 500.500 M 232 501.500 L 232 502 232.500 502 L 233 502 233 501.500 L 233 501 232.500 501 L 232 501 232 501.500 M 235 502.500 L 235 503 235.500 503 L 236 503 236 502.500 L 236 502 235.500 502 L 235 502 235 502.500 M 239 503.500 L 239 504 239.500 504 L 240 504 240 503.500 L 240 503 239.500 503 L 239 503 239 503.500 M 242.333 504.667 L 243 505.333 243.667 504.667 L 244.333 504 243 504 L 241.667 504 242.333 504.667 M 246.333 505.667 L 247 506.333 247.667 505.667 L 248.333 505 247 505 L 245.667 505 246.333 505.667 M 344.333 505.667 L 345 506.333 345.667 505.667 L 346.333 505 345 505 L 343.667 505 344.333 505.667 M 251 506.500 L 251 507 251.500 507 L 252 507 252 506.500 L 252 506 251.500 506 L 251 506 251 506.500 M 340 506.500 L 340 507 340.500 507 L 341 507 341 506.500 L 341 506 340.500 506 L 340 506 340 506.500 M 256 507.500 L 256 508 256.500 508 L 257 508 257 507.500 L 257 507 256.500 507 L 256 507 256 507.500 M 335 507.500 L 335 508 335.500 508 L 336 508 336 507.500 L 336 507 335.500 507 L 335 507 335 507.500 M 262 508.500 L 262 509 262.500 509 L 263 509 263 508.500 L 263 508 262.500 508 L 262 508 262 508.500 M 329.333 508.667 L 330 509.333 330.667 508.667 L 331.333 508 330 508 L 328.667 508 329.333 508.667 M 268.813 509.683 L 270.125 510.208 270.729 509.604 L 271.333 509 269.417 509.079 L 267.500 509.158 268.813 509.683 M 321.813 509.683 L 323.125 510.208 323.729 509.604 L 324.333 509 322.417 509.079 L 320.500 509.158 321.813 509.683 M 278.750 510.662 L 280 511.167 281.250 510.662 L 282.500 510.158 280 510.158 L 277.500 510.158 278.750 510.662 M 310.750 510.662 L 312 511.167 313.250 510.662 L 314.500 510.158 312 510.158 L 309.500 510.158 310.750 510.662" stroke="none" fill="#dedfde" fill-rule="evenodd"/><path d="M 281.269 83.693 L 283.038 84.154 284.269 83.656 L 285.500 83.158 282.500 83.195 L 279.500 83.232 281.269 83.693 M 314.269 83.693 L 316.038 84.154 317.269 83.656 L 318.500 83.158 315.500 83.195 L 312.500 83.232 314.269 83.693 M 271.813 84.683 L 273.125 85.208 273.729 84.604 L 274.333 84 272.417 84.079 L 270.500 84.158 271.813 84.683 M 324.813 84.683 L 326.125 85.208 326.729 84.604 L 327.333 84 325.417 84.079 L 323.500 84.158 324.813 84.683 M 264.333 85.667 L 265 86.333 265.667 85.667 L 266.333 85 265 85 L 263.667 85 264.333 85.667 M 332.333 85.667 L 333 86.333 333.667 85.667 L 334.333 85 333 85 L 331.667 85 332.333 85.667 M 258.333 86.667 L 259 87.333 259.667 86.667 L 260.333 86 259 86 L 257.667 86 258.333 86.667 M 338.333 86.667 L 339 87.333 339.667 86.667 L 340.333 86 339 86 L 337.667 86 338.333 86.667 M 254 87.500 L 254 88 254.500 88 L 255 88 255 87.500 L 255 87 254.500 87 L 254 87 254 87.500 M 343.333 87.667 L 344 88.333 344.667 87.667 L 345.333 87 344 87 L 342.667 87 343.333 87.667 M 249 88.500 L 249 89 249.500 89 L 250 89 250 88.500 L 250 88 249.500 88 L 249 88 249 88.500 M 349 90.184 L 352.500 92.333 360.750 97.730 L 369 103.127 369 104.063 L 369 105 370.103 105 L 371.205 105 379.471 108.874 L 387.738 112.747 394.119 117.052 L 400.500 121.356 407.859 128.428 L 415.218 135.500 419.490 141.500 L 423.761 147.500 426.525 153 L 429.288 158.500 431.676 165.500 L 434.064 172.500 435.532 180.881 L 437 189.262 437.217 204.881 L 437.435 220.500 437.786 207.500 L 438.138 194.500 441.091 201.835 L 444.044 209.169 447.419 220.335 L 450.794 231.500 452.854 241.500 L 454.913 251.500 456.457 263.301 L 458 275.102 458 277.051 L 458 279 435.500 279 L 413 279 413 278.329 L 413 277.657 414.250 276.030 L 415.500 274.402 413.083 276.951 L 410.665 279.500 461.990 279.759 L 513.315 280.018 513.590 279.744 L 513.864 279.469 512.883 271.484 L 511.901 263.500 509.852 253.500 L 507.803 243.500 503.533 230.500 L 499.263 217.500 494.738 207.832 L 490.213 198.164 484.572 188.579 L 478.931 178.994 471.252 168.800 L 463.572 158.605 454.046 148.680 L 444.519 138.754 434.509 130.698 L 424.500 122.641 416.500 117.493 L 408.500 112.345 400 107.731 L 391.500 103.116 380 98.491 L 368.500 93.866 358.077 90.933 L 347.653 88 346.577 88.017 L 345.500 88.034 349 90.184 M 245 89.500 L 245 90 245.500 90 L 246 90 246 89.500 L 246 89 245.500 89 L 245 89 245 89.500 M 241.333 90.667 L 242 91.333 242.667 90.667 L 243.333 90 242 90 L 240.667 90 241.333 90.667 M 237.333 91.667 L 238 92.333 238.667 91.667 L 239.333 91 238 91 L 236.667 91 237.333 91.667 M 234.333 92.667 L 235 93.333 235.667 92.667 L 236.333 92 235 92 L 233.667 92 234.333 92.667 M 231 93.500 L 231 94 231.500 94 L 232 94 232 93.500 L 232 93 231.500 93 L 231 93 231 93.500 M 228 94.500 L 228 95 228.500 95 L 229 95 229 94.500 L 229 94 228.500 94 L 228 94 228 94.500 M 278.768 94.725 L 282.036 95.129 284.768 94.715 L 287.500 94.300 281.500 94.310 L 275.500 94.320 278.768 94.725 M 314.728 94.722 L 317.955 95.123 321.728 94.730 L 325.500 94.336 318.500 94.328 L 311.500 94.320 314.728 94.722 M 226 95.500 L 226 96 226.500 96 L 227 96 227 95.500 L 227 95 226.500 95 L 226 95 226 95.500 M 267.250 95.689 L 269 96.147 270.750 95.689 L 272.500 95.232 269 95.232 L 265.500 95.232 267.250 95.689 M 329.250 95.689 L 331 96.147 332.750 95.689 L 334.500 95.232 331 95.232 L 327.500 95.232 329.250 95.689 M 223 96.500 L 223 97 223.500 97 L 224 97 224 96.500 L 224 96 223.500 96 L 223 96 223 96.500 M 260.269 96.693 L 262.038 97.154 263.269 96.656 L 264.500 96.158 261.500 96.195 L 258.500 96.232 260.269 96.693 M 337.269 96.693 L 339.038 97.154 340.269 96.656 L 341.500 96.158 338.500 96.195 L 335.500 96.232 337.269 96.693 M 220 97.500 L 220 98 220.500 98 L 221 98 221 97.500 L 221 97 220.500 97 L 220 97 220 97.500 M 253.750 97.662 L 255 98.167 256.250 97.662 L 257.500 97.158 255 97.158 L 252.500 97.158 253.750 97.662 M 343.813 97.683 L 345.125 98.208 345.729 97.604 L 346.333 97 344.417 97.079 L 342.500 97.158 343.813 97.683 M 218 98.500 L 218 99 218.500 99 L 219 99 219 98.500 L 219 98 218.500 98 L 218 98 218 98.500 M 248.813 98.683 L 250.125 99.208 250.729 98.604 L 251.333 98 249.417 98.079 L 247.500 98.158 248.813 98.683 M 348.813 98.683 L 350.125 99.208 350.729 98.604 L 351.333 98 349.417 98.079 L 347.500 98.158 348.813 98.683 M 215 99.500 L 215 100 215.500 100 L 216 100 216 99.500 L 216 99 215.500 99 L 215 99 215 99.500 M 243.813 99.683 L 245.125 100.208 245.729 99.604 L 246.333 99 244.417 99.079 L 242.500 99.158 243.813 99.683 M 352.813 99.683 L 354.125 100.208 354.729 99.604 L 355.333 99 353.417 99.079 L 351.500 99.158 352.813 99.683 M 213 100.500 L 213 101 213.500 101 L 214 101 214 100.500 L 214 100 213.500 100 L 213 100 213 100.500 M 238.813 100.683 L 240.125 101.208 240.729 100.604 L 241.333 100 239.417 100.079 L 237.500 100.158 238.813 100.683 M 356.813 100.683 L 358.125 101.208 358.729 100.604 L 359.333 100 357.417 100.079 L 355.500 100.158 356.813 100.683 M 210 101.500 L 210 102 210.500 102 L 211 102 211 101.500 L 211 101 210.500 101 L 210 101 210 101.500 M 234.813 101.683 L 236.125 102.208 236.729 101.604 L 237.333 101 235.417 101.079 L 233.500 101.158 234.813 101.683 M 360.333 101.667 L 361 102.333 361.667 101.667 L 362.333 101 361 101 L 359.667 101 360.333 101.667 M 208 102.500 L 208 103 208.500 103 L 209 103 209 102.500 L 209 102 208.500 102 L 208 102 208 102.500 M 230.813 102.683 L 232.125 103.208 232.729 102.604 L 233.333 102 231.417 102.079 L 229.500 102.158 230.813 102.683 M 363.333 102.667 L 364 103.333 364.667 102.667 L 365.333 102 364 102 L 362.667 102 363.333 102.667 M 206 103.500 L 206 104 206.500 104 L 207 104 207 103.500 L 207 103 206.500 103 L 206 103 206 103.500 M 226.813 103.683 L 228.125 104.208 228.729 103.604 L 229.333 103 227.417 103.079 L 225.500 103.158 226.813 103.683 M 366.333 103.667 L 367 104.333 367.667 103.667 L 368.333 103 367 103 L 365.667 103 366.333 103.667 M 204 104.500 L 204 105 204.500 105 L 205 105 205 104.500 L 205 104 204.500 104 L 204 104 204 104.500 M 222.813 104.683 L 224.125 105.208 224.729 104.604 L 225.333 104 223.417 104.079 L 221.500 104.158 222.813 104.683 M 202 105.500 L 202 106 202.500 106 L 203 106 203 105.500 L 203 105 202.500 105 L 202 105 202 105.500 M 219.333 105.667 L 220 106.333 220.667 105.667 L 221.333 105 220 105 L 218.667 105 219.333 105.667 M 200 106.500 L 200 107 200.500 107 L 201 107 201 106.500 L 201 106 200.500 106 L 200 106 200 106.500 M 215.813 106.683 L 217.125 107.208 217.729 106.604 L 218.333 106 216.417 106.079 L 214.500 106.158 215.813 106.683 M 198 107.500 L 198 108 198.500 108 L 199 108 199 107.500 L 199 107 198.500 107 L 198 107 198 107.500 M 212.333 107.667 L 213 108.333 213.667 107.667 L 214.333 107 213 107 L 211.667 107 212.333 107.667 M 196 108.500 L 196 109 196.500 109 L 197 109 197 108.500 L 197 108 196.500 108 L 196 108 196 108.500 M 209.333 108.667 L 210 109.333 210.667 108.667 L 211.333 108 210 108 L 208.667 108 209.333 108.667 M 205.813 109.683 L 207.125 110.208 207.729 109.604 L 208.333 109 206.417 109.079 L 204.500 109.158 205.813 109.683 M 193 110.500 L 193 111 193.500 111 L 194 111 194 110.500 L 194 110 193.500 110 L 193 110 193 110.500 M 202.333 110.667 L 203 111.333 203.667 110.667 L 204.333 110 203 110 L 201.667 110 202.333 110.667 M 191 111.500 L 191 112 191.500 112 L 192 112 192 111.500 L 192 111 191.500 111 L 191 111 191 111.500 M 199.333 111.667 L 200 112.333 200.667 111.667 L 201.333 111 200 111 L 198.667 111 199.333 111.667 M 189 112.500 L 189 113 189.500 113 L 190 113 190 112.500 L 190 112 189.500 112 L 189 112 189 112.500 M 196.333 112.667 L 197 113.333 197.667 112.667 L 198.333 112 197 112 L 195.667 112 196.333 112.667 M 193.333 113.667 L 194 114.333 194.667 113.667 L 195.333 113 194 113 L 192.667 113 193.333 113.667 M 186 114.500 L 186 115 186.500 115 L 187 115 187 114.500 L 187 114 186.500 114 L 186 114 186 114.500 M 186.611 117.331 L 183.079 120.661 182.040 123.396 L 181 126.130 181 168.164 L 181 210.198 182.623 213.619 L 184.247 217.039 187.308 219.219 L 190.369 221.399 196.435 221.637 L 202.500 221.876 196.855 221.081 L 191.211 220.286 188.229 218.163 L 185.247 216.039 183.623 212.619 L 182 209.198 182 167.500 L 182 125.802 183.643 122.340 L 185.286 118.878 188.875 116.439 L 192.464 114 191.303 114 L 190.142 114 186.611 117.331 M 184 115.500 L 184 116 184.500 116 L 185 116 185 115.500 L 185 115 184.500 115 L 184 115 184 115.500 M 180.405 118.155 L 179.691 119.309 180.845 118.595 L 182 117.882 182 117.441 L 182 117 181.559 117 L 181.118 117 180.405 118.155 M 178 119.500 L 178 120 178.500 120 L 179 120 179 119.500 L 179 119 178.500 119 L 178 119 178 119.500 M 174.405 122.155 L 173.691 123.309 174.845 122.595 L 176 121.882 176 121.441 L 176 121 175.559 121 L 175.118 121 174.405 122.155 M 171 124.500 L 171 125 171.500 125 L 172 125 172 124.500 L 172 124 171.500 124 L 171 124 171 124.500 M 283 125.500 L 283 126 283.500 126 L 284 126 284 125.500 L 284 125 283.500 125 L 283 125 283 125.500 M 316 125.500 L 316 126 316.500 126 L 317 126 317 125.500 L 317 125 316.500 125 L 316 125 316 125.500 M 166.872 127.750 L 165.500 129.500 167.250 128.128 L 169 126.755 169 126.378 L 169 126 168.622 126 L 168.245 126 166.872 127.750 M 274 126.500 L 274 127 274.500 127 L 275 127 275 126.500 L 275 126 274.500 126 L 274 126 274 126.500 M 325 126.500 L 325 127 325.500 127 L 326 127 326 126.500 L 326 126 325.500 126 L 325 126 325 126.500 M 332 127.500 L 332 128 332.500 128 L 333 128 333 127.500 L 333 127 332.500 127 L 332 127 332 127.500 M 255 129.500 L 255 130 255.500 130 L 256 130 256 129.500 L 256 129 255.500 129 L 255 129 255 129.500 M 161.872 131.750 L 160.500 133.500 162.250 132.128 L 164 130.755 164 130.378 L 164 130 163.622 130 L 163.245 130 161.872 131.750 M 350 131.500 L 350 132 350.500 132 L 351 132 351 131.500 L 351 131 350.500 131 L 350 131 350 131.500 M 359 134.500 L 359 135 359.500 135 L 360 135 360 134.500 L 360 134 359.500 134 L 359 134 359 134.500 M 154.924 137.750 L 152.500 140.500 155.250 138.076 L 158 135.651 158 135.326 L 158 135 157.674 135 L 157.349 135 154.924 137.750 M 230 135.500 L 230 136 230.500 136 L 231 136 231 135.500 L 231 135 230.500 135 L 230 135 230 135.500 M 366 137.500 L 366 138 366.500 138 L 367 138 367 137.500 L 367 137 366.500 137 L 366 137 366 137.500 M 368 138.500 L 368 139 368.500 139 L 369 139 369 138.500 L 369 138 368.500 138 L 368 138 368 138.500 M 216 139.500 L 216 140 216.500 140 L 217 140 217 139.500 L 217 139 216.500 139 L 216 139 216 139.500 M 212.667 140.667 L 212 141.333 212 160.167 L 212 179 212.750 179 L 213.500 179 213.500 159.500 L 213.500 140 213.417 140 L 213.333 140 212.667 140.667 M 382 147.500 L 382 148 382.500 148 L 383 148 383 147.500 L 383 147 382.500 147 L 382 147 382 147.500 M 137.924 154.750 L 135.500 157.500 138.250 155.076 L 141 152.651 141 152.326 L 141 152 140.674 152 L 140.349 152 137.924 154.750 M 279.333 158.667 L 280 159.333 280.667 158.667 L 281.333 158 280 158 L 278.667 158 279.333 158.667 M 296.333 158.667 L 297 159.333 297.667 158.667 L 298.333 158 297 158 L 295.667 158 296.333 158.667 M 269 159.500 L 269 160 269.500 160 L 270 160 270 159.500 L 270 159 269.500 159 L 269 159 269 159.500 M 305 159.500 L 305 160 305.500 160 L 306 160 306 159.500 L 306 159 305.500 159 L 305 159 305 159.500 M 263 160.500 L 263 161 263.500 161 L 264 161 264 160.500 L 264 160 263.500 160 L 263 160 263 160.500 M 130.872 162.750 L 129.500 164.500 131.250 163.128 L 133 161.755 133 161.378 L 133 161 132.622 161 L 132.245 161 130.872 162.750 M 258 161.500 L 258 162 258.500 162 L 259 162 259 161.500 L 259 161 258.500 161 L 258 161 258 161.500 M 313 161.500 L 313 162 313.500 162 L 314 162 314 161.500 L 314 161 313.500 161 L 313 161 313 161.500 M 316 162.500 L 316 163 316.500 163 L 317 163 317 162.500 L 317 162 316.500 162 L 316 162 316 162.500 M 127.405 167.155 L 126.691 168.309 127.845 167.595 L 129 166.882 129 166.441 L 129 166 128.559 166 L 128.118 166 127.405 167.155 M 398 167.500 L 398 168 398.500 168 L 399 168 399 167.500 L 399 167 398.500 167 L 398 167 398 167.500 M 233 169.500 L 233 170 233.500 170 L 234 170 234 169.500 L 234 169 233.500 169 L 233 169 233 169.500 M 399 169.500 L 399 170 399.500 170 L 400 170 400 169.500 L 400 169 399.500 169 L 399 169 399 169.500 M 124.405 171.155 L 123.691 172.309 124.845 171.595 L 126 170.882 126 170.441 L 126 170 125.559 170 L 125.118 170 124.405 171.155 M 228 171.500 L 228 172 228.500 172 L 229 172 229 171.500 L 229 171 228.500 171 L 228 171 228 171.500 M 122 174.500 L 122 175 122.500 175 L 123 175 123 174.500 L 123 174 122.500 174 L 122 174 122 174.500 M 217 176.500 L 217 177 217.500 177 L 218 177 218 176.500 L 218 176 217.500 176 L 217 176 217 176.500 M 119.405 178.155 L 118.691 179.309 119.845 178.595 L 121 177.882 121 177.441 L 121 177 120.559 177 L 120.118 177 119.405 178.155 M 215 177.500 L 215 178 215.500 178 L 216 178 216 177.500 L 216 177 215.500 177 L 215 177 215 177.500 M 118 180.500 L 118 181 118.500 181 L 119 181 119 180.500 L 119 180 118.500 180 L 118 180 118 180.500 M 403 180.500 L 403 181 403.500 181 L 404 181 404 180.500 L 404 180 403.500 180 L 403 180 403 180.500 M 116 183.500 L 116 184 116.500 184 L 117 184 117 183.500 L 117 183 116.500 183 L 116 183 116 183.500 M 114 186.500 L 114 187 114.500 187 L 115 187 115 186.500 L 115 186 114.500 186 L 114 186 114 186.500 M 113 188.500 L 113 189 113.500 189 L 114 189 114 188.500 L 114 188 113.500 188 L 113 188 113 188.500 M 281.762 189.707 L 284.023 190.142 285.762 189.687 L 287.500 189.232 283.500 189.252 L 279.500 189.272 281.762 189.707 M 290.762 189.707 L 293.023 190.142 294.762 189.687 L 296.500 189.232 292.500 189.252 L 288.500 189.272 290.762 189.707 M 345 189.500 L 345 190 345.500 190 L 346 190 346 189.500 L 346 189 345.500 189 L 345 189 345 189.500 M 273.750 190.662 L 275 191.167 276.250 190.662 L 277.500 190.158 275 190.158 L 272.500 190.158 273.750 190.662 M 298.813 190.683 L 300.125 191.208 300.729 190.604 L 301.333 190 299.417 190.079 L 297.500 190.158 298.813 190.683 M 111 191.500 L 111 192 111.500 192 L 112 192 112 191.500 L 112 191 111.500 191 L 111 191 111 191.500 M 268.813 191.683 L 270.125 192.208 270.729 191.604 L 271.333 191 269.417 191.079 L 267.500 191.158 268.813 191.683 M 302.333 191.667 L 303 192.333 303.667 191.667 L 304.333 191 303 191 L 301.667 191 302.333 191.667 M 264.813 192.683 L 266.125 193.208 266.729 192.604 L 267.333 192 265.417 192.079 L 263.500 192.158 264.813 192.683 M 305.083 192.365 L 305.500 192.729 308 193.920 L 310.500 195.110 308.559 193.555 L 306.618 192 305.642 192 L 304.667 192 305.083 192.365 M 110 193.500 L 110 194 110.500 194 L 111 194 111 193.500 L 111 193 110.500 193 L 110 193 110 193.500 M 260.813 193.683 L 262.125 194.208 262.729 193.604 L 263.333 193 261.417 193.079 L 259.500 193.158 260.813 193.683 M 257.333 194.667 L 258 195.333 258.667 194.667 L 259.333 194 258 194 L 256.667 194 257.333 194.667 M 109 195.500 L 109 196 109.500 196 L 110 196 110 195.500 L 110 195 109.500 195 L 109 195 109 195.500 M 254.333 195.667 L 255 196.333 255.667 195.667 L 256.333 195 255 195 L 253.667 195 254.333 195.667 M 312.500 197 L 314.310 199 314.810 199 L 315.310 199 313.500 197 L 311.690 195 311.190 195 L 310.690 195 312.500 197 M 251.333 196.667 L 252 197.333 252.667 196.667 L 253.333 196 252 196 L 250.667 196 251.333 196.667 M 108 197.500 L 108 198 108.500 198 L 109 198 109 197.500 L 109 197 108.500 197 L 108 197 108 197.500 M 248.333 197.667 L 249 198.333 249.667 197.667 L 250.333 197 249 197 L 247.667 197 248.333 197.667 M 406 198 L 406 199.333 406.667 198.667 L 407.333 198 406.667 197.333 L 406 196.667 406 198 M 246 198.500 L 246 199 246.500 199 L 247 199 247 198.500 L 247 198 246.500 198 L 246 198 246 198.500 M 107 199.500 L 107 200 107.500 200 L 108 200 108 199.500 L 108 199 107.500 199 L 107 199 107 199.500 M 242 200 L 240.500 200.969 241.500 200.969 L 242.500 200.969 244 200 L 245.500 199.031 244.500 199.031 L 243.500 199.031 242 200 M 348 199.500 L 348 200 348.500 200 L 349 200 349 199.500 L 349 199 348.500 199 L 348 199 348 199.500 M 315 200.500 L 315 201 315.500 201 L 316 201 316 200.500 L 316 200 315.500 200 L 315 200 315 200.500 M 106 201.500 L 106 202 106.500 202 L 107 202 107 201.500 L 107 201 106.500 201 L 106 201 106 201.500 M 239 201.500 L 239 202 239.500 202 L 240 202 240 201.500 L 240 201 239.500 201 L 239 201 239 201.500 M 228.750 206.062 L 221 210.024 221 210.523 L 221 211.022 229.250 206.895 L 237.500 202.768 237.917 202.384 L 238.333 202 237.417 202.050 L 236.500 202.100 228.750 206.062 M 316 202.500 L 316 203 316.500 203 L 317 203 317 202.500 L 317 202 316.500 202 L 316 202 316 202.500 M 317.158 206 L 317.158 208.500 317.662 207.250 L 318.167 206 317.662 204.750 L 317.158 203.500 317.158 206 M 104 205.500 L 104 206 104.500 206 L 105 206 105 205.500 L 105 205 104.500 205 L 104 205 104 205.500 M 103 207.500 L 103 208 103.500 208 L 104 208 104 207.500 L 104 207 103.500 207 L 103 207 103 207.500 M 102 209.500 L 102 210 102.500 210 L 103 210 103 209.500 L 103 209 102.500 209 L 102 209 102 209.500 M 318 210.500 L 318 211 318.500 211 L 319 211 319 210.500 L 319 210 318.500 210 L 318 210 318 210.500 M 101 211.500 L 101 212 101.500 212 L 102 212 102 211.500 L 102 211 101.500 211 L 101 211 101 211.500 M 219 211.500 L 219 212 219.500 212 L 220 212 220 211.500 L 220 211 219.500 211 L 219 211 219 211.500 M 406 211.500 L 406 212 406.500 212 L 407 212 407 211.500 L 407 211 406.500 211 L 406 211 406 211.500 M 215.441 213.555 L 213.500 215.110 215.750 214.020 L 218 212.930 218 212.465 L 218 212 217.691 212 L 217.382 212 215.441 213.555 M 100 213.500 L 100 214 100.500 214 L 101 214 101 213.500 L 101 213 100.500 213 L 100 213 100 213.500 M 286.813 213.683 L 288.125 214.208 288.729 213.604 L 289.333 213 287.417 213.079 L 285.500 213.158 286.813 213.683 M 306.813 213.683 L 308.125 214.208 308.729 213.604 L 309.333 213 307.417 213.079 L 305.500 213.158 306.813 213.683 M 280.333 214.667 L 281 215.333 281.667 214.667 L 282.333 214 281 214 L 279.667 214 280.333 214.667 M 313.333 214.667 L 314 215.333 314.667 214.667 L 315.333 214 314 214 L 312.667 214 313.333 214.667 M 317 214.500 L 317 215 317.500 215 L 318 215 318 214.500 L 318 214 317.500 214 L 317 214 317 214.500 M 210.441 216.555 L 208.500 218.110 210.750 217.020 L 213 215.930 213 215.465 L 213 215 212.691 215 L 212.382 215 210.441 216.555 M 276 215.500 L 276 216 276.500 216 L 277 216 277 215.500 L 277 215 276.500 215 L 276 215 276 215.500 M 99 216.500 L 99 217 99.500 217 L 100 217 100 216.500 L 100 216 99.500 216 L 99 216 99 216.500 M 272.333 216.667 L 273 217.333 273.667 216.667 L 274.333 216 273 216 L 271.667 216 272.333 216.667 M 269.333 217.667 L 270 218.333 270.667 217.667 L 271.333 217 270 217 L 268.667 217 269.333 217.667 M 98 218.500 L 98 219 98.500 219 L 99 219 99 218.500 L 99 218 98.500 218 L 98 218 98 218.500 M 206.405 219.155 L 205.691 220.309 206.845 219.595 L 208 218.882 208 218.441 L 208 218 207.559 218 L 207.118 218 206.405 219.155 M 267 218.500 L 267 219 267.500 219 L 268 219 268 218.500 L 268 218 267.500 218 L 267 218 267 218.500 M 264 219.500 L 264 220 264.500 220 L 265 220 265 219.500 L 265 219 264.500 219 L 264 219 264 219.500 M 405 219.500 L 405 220 405.500 220 L 406 220 406 219.500 L 406 219 405.500 219 L 405 219 405 219.500 M 203.333 220.667 L 204 221.333 204.667 220.667 L 205.333 220 204 220 L 202.667 220 203.333 220.667 M 262 220.500 L 262 221 262.500 221 L 263 221 263 220.500 L 263 220 262.500 220 L 262 220 262 220.500 M 97 221.500 L 97 222 97.500 222 L 98 222 98 221.500 L 98 221 97.500 221 L 97 221 97 221.500 M 260 221.500 L 260 222 260.500 222 L 261 222 261 221.500 L 261 221 260.500 221 L 260 221 260 221.500 M 348 221.500 L 348 222 348.500 222 L 349 222 349 221.500 L 349 221 348.500 221 L 348 221 348 221.500 M 258 222.500 L 258 223 258.500 223 L 259 223 259 222.500 L 259 222 258.500 222 L 258 222 258 222.500 M 256 223.500 L 256 224 256.500 224 L 257 224 257 223.500 L 257 223 256.500 223 L 256 223 256 223.500 M 436.195 225.500 L 436.232 228.500 436.693 226.731 L 437.154 224.962 436.656 223.731 L 436.158 222.500 436.195 225.500 M 96 224.500 L 96 225 96.500 225 L 97 225 97 224.500 L 97 224 96.500 224 L 96 224 96 224.500 M 253.405 225.155 L 252.691 226.309 253.845 225.595 L 255 224.882 255 224.441 L 255 224 254.559 224 L 254.118 224 253.405 225.155 M 95 226.500 L 95 227 95.500 227 L 96 227 96 226.500 L 96 226 95.500 226 L 95 226 95 226.500 M 251 226.500 L 251 227 251.500 227 L 252 227 252 226.500 L 252 226 251.500 226 L 251 226 251 226.500 M 247.405 229.155 L 246.691 230.309 247.845 229.595 L 249 228.882 249 228.441 L 249 228 248.559 228 L 248.118 228 247.405 229.155 M 403 228.500 L 403 229 403.500 229 L 404 229 404 228.500 L 404 228 403.500 228 L 403 228 403 228.500 M 94 229.500 L 94 230 94.500 230 L 95 230 95 229.500 L 95 229 94.500 229 L 94 229 94 229.500 M 435.158 231 L 435.158 233.500 435.662 232.250 L 436.167 231 435.662 229.750 L 435.158 228.500 435.158 231 M 242.405 233.250 L 240.500 235.500 242.750 233.595 L 245 231.690 245 231.345 L 245 231 244.655 231 L 244.310 231 242.405 233.250 M 93 232.500 L 93 233 93.500 233 L 94 233 94 232.500 L 94 232 93.500 232 L 93 232 93 232.500 M 434.079 235.583 L 434.158 237.500 434.683 236.188 L 435.208 234.875 434.604 234.271 L 434 233.667 434.079 235.583 M 92 236 L 92 237.333 92.667 236.667 L 93.333 236 92.667 235.333 L 92 234.667 92 236 M 433 239 L 433 240.333 433.667 239.667 L 434.333 239 433.667 238.333 L 433 237.667 433 239 M 91 239.500 L 91 240 91.500 240 L 92 240 92 239.500 L 92 239 91.500 239 L 91 239 91 239.500 M 233.405 242.250 L 231.500 244.500 233.750 242.595 L 236 240.690 236 240.345 L 236 240 235.655 240 L 235.310 240 233.405 242.250 M 398 241.500 L 398 242 398.500 242 L 399 242 399 241.500 L 399 241 398.500 241 L 398 241 398 241.500 M 432 242 L 432 243.333 432.667 242.667 L 433.333 242 432.667 241.333 L 432 240.667 432 242 M 90 243 L 90 244.333 90.667 243.667 L 91.333 243 90.667 242.333 L 90 241.667 90 243 M 431 245 L 431 246.333 431.667 245.667 L 432.333 245 431.667 244.333 L 431 243.667 431 245 M 89 247 L 89 248.333 89.667 247.667 L 90.333 247 89.667 246.333 L 89 245.667 89 247 M 229 247.500 L 229 248 229.500 248 L 230 248 230 247.500 L 230 247 229.500 247 L 229 247 229 247.500 M 429.624 248.539 L 429 250.164 429.030 250.832 L 429.061 251.500 430.122 249.675 L 431.183 247.850 430.715 247.382 L 430.247 246.914 429.624 248.539 M 288 248.500 L 288 249 288.500 249 L 289 249 289 248.500 L 289 248 288.500 248 L 288 248 288 248.500 M 88 251 L 88 252.333 88.667 251.667 L 89.333 251 88.667 250.333 L 88 249.667 88 251 M 227 250.500 L 227 251 227.500 251 L 228 251 228 250.500 L 228 250 227.500 250 L 227 250 227 250.500 M 290 251.500 L 290 252 290.500 252 L 291 252 291 251.500 L 291 251 290.500 251 L 290 251 290 251.500 M 428 252.500 L 428 253 428.500 253 L 429 253 429 252.500 L 429 252 428.500 252 L 428 252 428 252.500 M 225 253.500 L 225 254 225.500 254 L 226 254 226 253.500 L 226 253 225.500 253 L 225 253 225 253.500 M 426.564 255.707 L 425.882 257.500 427.124 256.267 L 428.367 255.033 427.807 254.474 L 427.247 253.914 426.564 255.707 M 87 256 L 87 257.333 87.667 256.667 L 88.333 256 87.667 255.333 L 87 254.667 87 256 M 223.405 256.155 L 222.691 257.309 223.845 256.595 L 225 255.882 225 255.441 L 225 255 224.559 255 L 224.118 255 223.405 256.155 M 389 255.500 L 389 256 389.500 256 L 390 256 390 255.500 L 390 255 389.500 255 L 389 255 389 255.500 M 222 258.500 L 222 259 222.500 259 L 223 259 223 258.500 L 223 258 222.500 258 L 222 258 222 258.500 M 266 258.500 L 266 259 266.500 259 L 267 259 267 258.500 L 267 258 266.500 258 L 266 258 266 258.500 M 425 258.500 L 425 259 425.500 259 L 426 259 426 258.500 L 426 258 425.500 258 L 425 258 425 258.500 M 386 259.500 L 386 260 386.500 260 L 387 260 387 259.500 L 387 259 386.500 259 L 386 259 386 259.500 M 86.079 261.583 L 86.158 263.500 86.683 262.188 L 87.208 260.875 86.604 260.271 L 86 259.667 86.079 261.583 M 221 260.500 L 221 261 221.500 261 L 222 261 222 260.500 L 222 260 221.500 260 L 221 260 221 260.500 M 278.872 261.750 L 277.500 263.500 279.250 262.128 L 281 260.755 281 260.378 L 281 260 280.622 260 L 280.245 260 278.872 261.750 M 423 262 L 421.930 264 422.430 264 L 422.930 264 424 262 L 425.070 260 424.570 260 L 424.070 260 423 262 M 220 263.500 L 220 264 220.500 264 L 221 264 221 263.500 L 221 263 220.500 263 L 220 263 220 263.500 M 219 265.500 L 219 266 219.500 266 L 220 266 220 265.500 L 220 265 219.500 265 L 219 265 219 265.500 M 259 265.500 L 259 266 259.500 266 L 260 266 260 265.500 L 260 265 259.500 265 L 259 265 259 265.500 M 381 265.500 L 381 266 381.500 266 L 382 266 382 265.500 L 382 265 381.500 265 L 381 265 381 265.500 M 420.405 266.155 L 419.691 267.309 420.845 266.595 L 422 265.882 422 265.441 L 422 265 421.559 265 L 421.118 265 420.405 266.155 M 85 268 L 85 269.333 85.667 268.667 L 86.333 268 85.667 267.333 L 85 266.667 85 268 M 218 268 L 218 269.333 218.667 268.667 L 219.333 268 218.667 267.333 L 218 266.667 218 268 M 418.405 269.155 L 417.691 270.309 418.845 269.595 L 420 268.882 420 268.441 L 420 268 419.559 268 L 419.118 268 418.405 269.155 M 217 271 L 217 272.333 217.667 271.667 L 218.333 271 217.667 270.333 L 217 269.667 217 271 M 416.405 272.155 L 415.691 273.309 416.845 272.595 L 418 271.882 418 271.441 L 418 271 417.559 271 L 417.118 271 416.405 272.155 M 216 274 L 216 275.333 216.667 274.667 L 217.333 274 216.667 273.333 L 216 272.667 216 274 M 84.158 276 L 84.158 278.500 84.662 277.250 L 85.167 276 84.662 274.750 L 84.158 273.500 84.158 276 M 253 274.500 L 253 275 253.500 275 L 254 275 254 274.500 L 254 274 253.500 274 L 253 274 253 274.500 M 215 277.833 L 215 279 149.250 279.243 L 83.500 279.485 148.943 279.750 L 214.385 280.015 215.376 279.024 L 216.367 278.033 215.683 277.350 L 215 276.667 215 277.833 M 307.405 278.155 L 306.691 279.309 307.845 278.595 L 309 277.882 309 277.441 L 309 277 308.559 277 L 308.118 277 307.405 278.155 M 260.405 280.155 L 259.691 281.309 260.845 280.595 L 262 279.882 262 279.441 L 262 279 261.559 279 L 261.118 279 260.405 280.155 M 366 280.500 L 366 281 366.500 281 L 367 281 367 280.500 L 367 280 366.500 280 L 366 280 366 280.500 M 249 285.500 L 249 286 249.500 286 L 250 286 250 285.500 L 250 285 249.500 285 L 249 285 249 285.500 M 254 287.500 L 254 288 254.500 288 L 255 288 255 287.500 L 255 287 254.500 287 L 254 287 254 287.500 M 295.872 288.750 L 294.500 290.500 296.250 289.128 L 298 287.755 298 287.378 L 298 287 297.622 287 L 297.245 287 295.872 288.750 M 357 288.500 L 357 289 357.500 289 L 358 289 358 288.500 L 358 288 357.500 288 L 357 288 357 288.500 M 248 291.500 L 248 292 248.500 292 L 249 292 249 291.500 L 249 291 248.500 291 L 248 291 248 291.500 M 250 292.500 L 250 293 250.500 293 L 251 293 251 292.500 L 251 292 250.500 292 L 250 292 250 292.500 M 286.872 297.750 L 285.500 299.500 287.250 298.128 L 289 296.755 289 296.378 L 289 296 288.622 296 L 288.245 296 286.872 297.750 M 280 305.500 L 280 306 280.500 306 L 281 306 281 305.500 L 281 305 280.500 305 L 280 305 280 305.500 M 276 310.500 L 276 311 276.500 311 L 277 311 277 310.500 L 277 310 276.500 310 L 276 310 276 310.500 M 334 311.500 L 334 312 334.500 312 L 335 312 335 311.500 L 335 311 334.500 311 L 334 311 334 311.500 M 81 317.500 L 81 318 81.500 318 L 82 318 82 317.500 L 82 317 81.500 317 L 81 317 81 317.500 M 510 319.500 L 510 320 510.500 320 L 511 320 511 319.500 L 511 319 510.500 319 L 510 319 510 319.500 M 217 322.500 L 217 323 217.500 323 L 218 323 218 322.500 L 218 322 217.500 322 L 217 322 217 322.500 M 218 325.500 L 218 326 218.500 326 L 219 326 219 325.500 L 219 325 218.500 325 L 218 325 218 325.500 M 82 326.500 L 82 327 82.500 327 L 83 327 83 326.500 L 83 326 82.500 326 L 82 326 82 326.500 M 267 326.500 L 267 327 267.500 327 L 268 327 268 326.500 L 268 326 267.500 326 L 267 326 267 326.500 M 509 327.500 L 509 328 509.500 328 L 510 328 510 327.500 L 510 327 509.500 327 L 509 327 509 327.500 M 266 329.500 L 266 330 266.500 330 L 267 330 267 329.500 L 267 329 266.500 329 L 266 329 266 329.500 M 220 330.500 L 220 331 220.500 331 L 221 331 221 330.500 L 221 330 220.500 330 L 220 330 220 330.500 M 83 332.500 L 83 333 83.500 333 L 84 333 84 332.500 L 84 332 83.500 332 L 83 332 83 332.500 M 373 332.500 L 373 333 373.500 333 L 374 333 374 332.500 L 374 332 373.500 332 L 373 332 373 332.500 M 265 333.500 L 265 334 265.500 334 L 266 334 266 333.500 L 266 333 265.500 333 L 265 333 265 333.500 M 508 333.500 L 508 334 508.500 334 L 509 334 509 333.500 L 509 333 508.500 333 L 508 333 508 333.500 M 372 334.500 L 372 335 372.500 335 L 373 335 373 334.500 L 373 334 372.500 334 L 372 334 372 334.500 M 322 335.500 L 322 336 322.500 336 L 323 336 323 335.500 L 323 335 322.500 335 L 322 335 322 335.500 M 224 338.500 L 224 339 224.500 339 L 225 339 225 338.500 L 225 338 224.500 338 L 224 338 224 338.500 M 264 339.500 L 264 340 264.500 340 L 265 340 265 339.500 L 265 339 264.500 339 L 264 339 264 339.500 M 368 341.500 L 368 342 368.500 342 L 369 342 369 341.500 L 369 341 368.500 341 L 368 341 368 341.500 M 506 343.500 L 506 344 506.500 344 L 507 344 507 343.500 L 507 343 506.500 343 L 506 343 506 343.500 M 366 344.500 L 366 345 366.500 345 L 367 345 367 344.500 L 367 344 366.500 344 L 366 344 366 344.500 M 230 347.500 L 230 348 230.500 348 L 231 348 231 347.500 L 231 347 230.500 347 L 230 347 230 347.500 M 504 351.500 L 504 352 504.500 352 L 505 352 505 351.500 L 505 351 504.500 351 L 504 351 504 351.500 M 355.872 356.750 L 354.500 358.500 356.250 357.128 L 358 355.755 358 355.378 L 358 355 357.622 355 L 357.245 355 355.872 356.750 M 502 358.500 L 502 359 502.500 359 L 503 359 503 358.500 L 503 358 502.500 358 L 502 358 502 358.500 M 91 364.500 L 91 365 91.500 365 L 92 365 92 364.500 L 92 364 91.500 364 L 91 364 91 364.500 M 498 370.500 L 498 371 498.500 371 L 499 371 499 370.500 L 499 370 498.500 370 L 498 370 498 370.500 M 270 376.500 L 270 377 270.500 377 L 271 377 271 376.500 L 271 376 270.500 376 L 270 376 270 376.500 M 324 376.500 L 324 377 324.500 377 L 325 377 325 376.500 L 325 376 324.500 376 L 324 376 324 376.500 M 277 378.500 L 277 379 277.500 379 L 278 379 278 378.500 L 278 378 277.500 378 L 277 378 277 378.500 M 317 378.500 L 317 379 317.500 379 L 318 379 318 378.500 L 318 378 317.500 378 L 317 378 317 378.500 M 305 380.500 L 305 381 305.500 381 L 306 381 306 380.500 L 306 380 305.500 380 L 305 380 305 380.500 M 494 380.500 L 494 381 494.500 381 L 495 381 495 380.500 L 495 380 494.500 380 L 494 380 494 380.500 M 98 382.500 L 98 383 98.500 383 L 99 383 99 382.500 L 99 382 98.500 382 L 98 382 98 382.500 M 483 402.500 L 483 403 483.500 403 L 484 403 484 402.500 L 484 402 483.500 402 L 483 402 483 402.500 M 321.441 441 L 321.441 469.500 321.748 455.250 L 322.055 441 321.748 426.750 L 321.441 412.500 321.441 441 M 475 415.500 L 475 416 475.500 416 L 476 416 476 415.500 L 476 415 475.500 415 L 475 415 475 415.500 M 124 426.500 L 124 427 124.500 427 L 125 427 125 426.500 L 125 426 124.500 426 L 124 426 124 426.500 M 464 430.500 L 464 431 464.500 431 L 465 431 465 430.500 L 465 430 464.500 430 L 464 430 464 430.500 M 128 431.500 L 128 432 128.500 432 L 129 432 129 431.500 L 129 431 128.500 431 L 128 431 128 431.500 M 459 436.500 L 459 437 459.500 437 L 460 437 460 436.500 L 460 436 459.500 436 L 459 436 459 436.500 M 153 457.500 L 153 458 153.500 458 L 154 458 154 457.500 L 154 457 153.500 457 L 153 457 153 457.500 M 437 458.500 L 437 459 437.500 459 L 438 459 438 458.500 L 438 458 437.500 458 L 437 458 437 458.500 M 426 467.500 L 426 468 426.500 468 L 427 468 427 467.500 L 427 467 426.500 467 L 426 467 426 467.500 M 422 470.500 L 422 471 422.500 471 L 423 471 423 470.500 L 423 470 422.500 470 L 422 470 422 470.500 M 172 472.500 L 172 473 172.500 473 L 173 473 173 472.500 L 173 472 172.500 472 L 172 472 172 472.500 M 175 474.500 L 175 475 175.500 475 L 176 475 176 474.500 L 176 474 175.500 474 L 175 474 175 474.500 M 178 476.500 L 178 477 178.500 477 L 179 477 179 476.500 L 179 476 178.500 476 L 178 476 178 476.500 M 181 478.500 L 181 479 181.500 479 L 182 479 182 478.500 L 182 478 181.500 478 L 181 478 181 478.500 M 186 481.500 L 186 482 186.500 482 L 187 482 187 481.500 L 187 481 186.500 481 L 186 481 186 481.500 M 400 484.500 L 400 485 400.500 485 L 401 485 401 484.500 L 401 484 400.500 484 L 400 484 400 484.500 M 195 486.500 L 195 487 195.500 487 L 196 487 196 486.500 L 196 486 195.500 486 L 195 486 195 486.500 M 199 488.500 L 199 489 199.500 489 L 200 489 200 488.500 L 200 488 199.500 488 L 199 488 199 488.500 M 201 489.500 L 201 490 201.500 490 L 202 490 202 489.500 L 202 489 201.500 489 L 201 489 201 489.500 M 203 490.500 L 203 491 203.500 491 L 204 491 204 490.500 L 204 490 203.500 490 L 203 490 203 490.500 M 384 492.500 L 384 493 384.500 493 L 385 493 385 492.500 L 385 492 384.500 492 L 384 492 384 492.500 M 212 494.500 L 212 495 212.500 495 L 213 495 213 494.500 L 213 494 212.500 494 L 212 494 212 494.500 M 377 495.500 L 377 496 377.500 496 L 378 496 378 495.500 L 378 495 377.500 495 L 377 495 377 495.500 M 228 500.500 L 228 501 228.500 501 L 229 501 229 500.500 L 229 500 228.500 500 L 228 500 228 500.500 M 231 501.500 L 231 502 231.500 502 L 232 502 232 501.500 L 232 501 231.500 501 L 231 501 231 501.500 M 357 502.500 L 357 503 357.500 503 L 358 503 358 502.500 L 358 502 357.500 502 L 357 502 357 502.500 M 238 503.500 L 238 504 238.500 504 L 239 504 239 503.500 L 239 503 238.500 503 L 238 503 238 503.500 M 341 506.500 L 341 507 341.500 507 L 342 507 342 506.500 L 342 506 341.500 506 L 341 506 341 506.500 M 255 507.500 L 255 508 255.500 508 L 256 508 256 507.500 L 256 507 255.500 507 L 255 507 255 507.500 M 336 507.500 L 336 508 336.500 508 L 337 508 337 507.500 L 337 507 336.500 507 L 336 507 336 507.500 M 261 508.500 L 261 509 261.500 509 L 262 509 262 508.500 L 262 508 261.500 508 L 261 508 261 508.500 M 277 510.500 L 277 511 277.500 511 L 278 511 278 510.500 L 278 510 277.500 510 L 277 510 277 510.500 M 314 510.500 L 314 511 314.500 511 L 315 511 315 510.500 L 315 510 314.500 510 L 314 510 314 510.500" stroke="none" fill="#de1918" fill-rule="evenodd"/><path d="M 277 84.136 L 268.500 85.006 260 86.550 L 251.500 88.093 240.914 91.058 L 230.329 94.023 219.914 98.070 L 209.500 102.117 199 107.650 L 188.500 113.184 179.500 119.237 L 170.500 125.291 163 131.347 L 155.500 137.404 145.879 147.106 L 136.259 156.808 129.757 165.154 L 123.254 173.500 117.738 182 L 112.222 190.500 106.599 201.696 L 100.976 212.892 97.456 222.115 L 93.937 231.337 91.007 242.418 L 88.076 253.500 86.586 263 L 85.096 272.500 84.721 275.750 L 84.346 279 149.635 279 L 214.923 279 216.056 274.750 L 217.190 270.500 220.038 263.779 L 222.886 257.058 227.129 250.779 L 231.371 244.500 237.434 238.156 L 243.498 231.812 250.601 227.061 L 257.705 222.310 265.102 219.233 L 272.500 216.157 280.934 214.450 L 289.369 212.744 301.434 213.324 L 313.500 213.903 315.500 214.202 L 317.500 214.500 317.271 209.129 L 317.043 203.758 315.217 200.632 L 313.392 197.507 310.009 195.227 L 306.626 192.947 301.259 191.387 L 295.892 189.827 287.696 189.851 L 279.500 189.876 271.529 191.524 L 263.558 193.172 255.529 195.680 L 247.500 198.187 234.251 204.526 L 221.003 210.864 212.251 216.182 L 203.500 221.500 197 221.500 L 190.500 221.500 187.373 219.270 L 184.247 217.039 182.623 213.619 L 181 210.198 181 168 L 181 125.802 182.641 122.345 L 184.281 118.887 187.391 116.524 L 190.500 114.162 205.500 109.506 L 220.500 104.850 232.500 101.939 L 244.500 99.028 256.500 96.890 L 268.500 94.752 293.641 94.258 L 318.781 93.763 329.141 94.950 L 339.500 96.137 348.755 98.124 L 358.010 100.111 363.755 102.069 L 369.500 104.028 366.500 101.590 L 363.500 99.153 354.335 93.544 L 345.170 87.936 337.835 86.550 L 330.500 85.165 319.576 84.082 L 308.653 83 297.076 83.133 L 285.500 83.266 277 84.136 M 438.052 205.678 L 438 216.855 436.918 224.636 L 435.835 232.418 433.313 240.459 L 430.790 248.500 427.320 255.454 L 423.851 262.408 418.425 270.284 L 413 278.159 413 278.580 L 413 279 435.500 279 L 458 279 458 277.051 L 458 275.102 456.457 263.301 L 454.913 251.500 452.854 241.500 L 450.794 231.500 447.419 220.335 L 444.044 209.169 441.074 201.835 L 438.104 194.500 438.052 205.678" stroke="none" fill="#fe1d1c" fill-rule="evenodd"/><path d="M 272.500 42.064 L 263.500 42.993 252.500 44.967 L 241.500 46.942 228.500 50.511 L 215.500 54.080 204 58.637 L 192.500 63.194 180 69.654 L 167.500 76.114 155 84.524 L 142.500 92.934 132.444 101.370 L 122.388 109.806 112.729 119.964 L 103.071 130.122 96.554 138.468 L 90.037 146.813 84.152 155.657 L 78.268 164.500 73.476 172.994 L 68.684 181.487 63.767 192.494 L 58.850 203.500 54.524 216.500 L 50.199 229.500 47.633 241.063 L 45.068 252.625 43.471 265.563 L 41.875 278.500 41.897 297.500 L 41.918 316.500 43.504 328.500 L 45.090 340.500 46.598 348 L 48.106 355.500 51.175 366.500 L 54.243 377.500 58.488 388.500 L 62.733 399.500 69.256 412.500 L 75.779 425.500 83.011 436.500 L 90.244 447.500 97.821 457 L 105.398 466.500 116.449 477.607 L 127.500 488.713 137.589 496.688 L 147.679 504.662 156.341 510.367 L 165.003 516.071 175.621 521.976 L 186.238 527.880 198.369 532.846 L 210.500 537.812 222 541.442 L 233.500 545.072 245.500 547.488 L 257.500 549.904 266.500 551.166 L 275.500 552.429 297 552.436 L 318.500 552.444 328 551.184 L 337.500 549.923 349.847 547.436 L 362.195 544.949 373.347 541.372 L 384.500 537.795 396.631 532.838 L 408.762 527.880 419.379 521.976 L 429.997 516.071 438.659 510.367 L 447.321 504.662 457.411 496.688 L 467.500 488.713 478.532 477.607 L 489.564 466.500 495.854 458.740 L 502.145 450.980 510.383 438.740 L 518.621 426.500 525.355 413.235 L 532.088 399.970 536.423 388.735 L 540.757 377.500 543.825 366.500 L 546.894 355.500 548.402 348 L 549.910 340.500 551.497 328.500 L 553.084 316.500 553.084 297 L 553.084 277.500 551.499 265.500 L 549.913 253.500 547.846 243.509 L 545.780 233.519 542.844 223.637 L 539.908 213.755 536.323 204.628 L 532.737 195.500 527.959 185.500 L 523.182 175.500 516.543 164.581 L 509.905 153.662 501.573 142.581 L 493.242 131.500 482.657 120.386 L 472.071 109.273 461.972 100.886 L 451.873 92.500 438.812 83.733 L 425.752 74.966 410.626 67.567 L 395.500 60.168 385.659 56.559 L 375.819 52.950 362.468 49.437 L 349.117 45.925 335.809 43.895 L 322.500 41.864 302 41.499 L 281.500 41.134 272.500 42.064 M 270.500 84.565 L 260.500 85.924 249 88.563 L 237.500 91.202 224 96.187 L 210.500 101.173 200 106.671 L 189.500 112.169 179.615 118.729 L 169.729 125.288 161.115 132.482 L 152.500 139.676 142.658 149.959 L 132.816 160.242 126.103 169.371 L 119.389 178.500 115.295 185.067 L 111.201 191.633 105.728 202.567 L 100.256 213.500 96.231 224.500 L 92.207 235.500 89.616 246 L 87.026 256.500 85.513 266.743 L 84 276.987 84 278.501 L 84 280.014 149.519 279.757 L 215.038 279.500 218.367 269.814 L 221.697 260.128 225.864 253.482 L 230.031 246.836 234.265 241.902 L 238.500 236.968 244.538 232.057 L 250.576 227.146 258.038 223.184 L 265.500 219.221 272 217.144 L 278.500 215.066 285 214.041 L 291.500 213.015 297.308 213.008 L 303.117 213 310.136 214.089 L 317.155 215.178 317.705 214.628 L 318.255 214.078 318.165 209.572 L 318.074 205.066 316.017 201.034 L 313.960 197.002 310.230 194.545 L 306.500 192.088 300.540 190.544 L 294.580 189 288.421 189 L 282.262 189 273.381 190.546 L 264.500 192.091 254.289 195.505 L 244.078 198.918 233.789 203.781 L 223.500 208.644 214 214.534 L 204.500 220.424 198 220.462 L 191.500 220.500 188.373 218.270 L 185.247 216.039 183.623 212.619 L 182 209.198 182 167.500 L 182 125.802 183.656 122.312 L 185.313 118.822 188.906 116.477 L 192.500 114.132 206 110.001 L 219.500 105.871 233.500 102.422 L 247.500 98.973 261.500 96.827 L 275.500 94.680 300 94.706 L 324.500 94.733 335.223 96.338 L 345.945 97.943 353.971 99.993 L 361.996 102.042 369.248 104.646 L 376.500 107.250 382.500 110.262 L 388.500 113.274 394.500 117.315 L 400.500 121.356 407.859 128.428 L 415.218 135.500 419.491 141.500 L 423.764 147.500 426.765 153.500 L 429.765 159.500 432.295 167.524 L 434.824 175.547 436.024 183.753 L 437.224 191.958 436.748 209.729 L 436.273 227.500 434.196 235.175 L 432.120 242.851 429.056 250.210 L 425.993 257.569 420.033 266.534 L 414.073 275.500 412.415 277.750 L 410.756 280 462.390 280 L 514.024 280 513.452 275.750 L 512.880 271.500 511.856 264.500 L 510.833 257.500 508.324 247.080 L 505.815 236.661 502.328 226.645 L 498.842 216.629 494.528 207.397 L 490.213 198.164 484.572 188.579 L 478.931 178.994 471.252 168.800 L 463.572 158.605 454.046 148.680 L 444.519 138.754 434.509 130.698 L 424.500 122.641 416.500 117.484 L 408.500 112.326 399 107.256 L 389.500 102.187 377.640 97.536 L 365.779 92.886 352.640 89.531 L 339.500 86.177 327.158 84.588 L 314.817 83 297.658 83.103 L 280.500 83.206 270.500 84.565 M 273.500 126.561 L 263.500 127.917 253.158 130.029 L 242.816 132.142 228.174 136.156 L 213.532 140.171 212.766 140.645 L 212 141.118 212 160.059 L 212 179 212.366 179 L 212.732 179 222.116 174.579 L 231.500 170.158 241.852 166.577 L 252.204 162.996 262.352 160.864 L 272.500 158.732 287.500 158.665 L 302.500 158.598 309 160.309 L 315.500 162.020 322.620 165.500 L 329.739 168.980 336.198 175.827 L 342.657 182.673 345.557 189.587 L 348.458 196.500 348.446 210.500 L 348.435 224.500 345.845 231.242 L 343.254 237.983 339.877 243.672 L 336.500 249.361 326.611 259.693 L 316.723 270.024 303.247 282.229 L 289.772 294.433 281.987 303.760 L 274.203 313.086 270.551 320.036 L 266.899 326.985 265.467 333.743 L 264.035 340.500 264.017 342.250 L 264 344 293 344 L 322 344 322 340.682 L 322 337.363 323.595 331.932 L 325.191 326.500 328.345 320.500 L 331.500 314.500 344.564 301.500 L 357.628 288.500 371.600 275 L 385.572 261.500 390.814 253.796 L 396.056 246.092 399.083 239.991 L 402.110 233.891 404.043 226.334 L 405.975 218.776 406.597 209.638 L 407.220 200.500 405.501 190.500 L 403.782 180.500 401.456 174.303 L 399.130 168.107 395.559 162.525 L 391.988 156.942 387.899 152.507 L 383.811 148.071 375.927 143.014 L 368.043 137.957 360.612 134.981 L 353.180 132.005 344.476 129.938 L 335.773 127.871 325.136 126.455 L 314.500 125.039 299 125.123 L 283.500 125.206 273.500 126.561 M 282.798 249.931 L 277.095 251.754 272.423 254.492 L 267.751 257.230 263.925 260.686 L 260.100 264.142 256.692 269.321 L 253.284 274.500 251.273 280 L 249.261 285.500 248.603 290.500 L 247.945 295.500 250.049 293 L 252.152 290.500 259.291 282.138 L 266.431 273.776 278.966 262.235 L 291.500 250.695 292.964 249.347 L 294.429 248 291.464 248.054 L 288.500 248.108 282.798 249.931 M 81.533 319.243 L 82.137 324.500 84.095 335.227 L 86.052 345.955 88.558 354.727 L 91.064 363.500 94.665 373 L 98.265 382.500 103.752 393.315 L 109.238 404.130 116.665 415.247 L 124.092 426.363 130.975 434.471 L 137.859 442.578 146.679 451.059 L 155.500 459.539 164.150 466.275 L 172.800 473.010 181.539 478.497 L 190.278 483.983 200.415 488.958 L 210.552 493.934 221.026 497.868 L 231.500 501.802 244 504.865 L 256.500 507.929 268.301 509.464 L 280.102 511 296 511 L 311.898 511 323.699 509.475 L 335.500 507.950 347.500 505.051 L 359.500 502.152 369.500 498.555 L 379.500 494.957 391.500 489.054 L 403.500 483.151 414 476.264 L 424.500 469.378 433.500 461.837 L 442.500 454.296 452.088 444.369 L 461.676 434.442 468.654 424.971 L 475.632 415.500 480.257 408 L 484.883 400.500 490.914 388 L 496.946 375.500 500.973 363.219 L 505.001 350.939 507.423 338.719 L 509.846 326.500 510.522 320.243 L 511.198 313.986 445.505 314.243 L 379.812 314.500 377.572 321.500 L 375.333 328.500 372.532 334 L 369.731 339.500 366.728 344 L 363.725 348.500 357.983 354.500 L 352.241 360.500 351.554 363.439 L 350.867 366.378 348.953 369.066 L 347.039 371.753 343.619 373.377 L 340.198 375 334.614 375 L 329.030 375 320.265 377.645 L 311.500 380.290 297.500 380.315 L 283.500 380.339 274.735 377.670 L 265.970 375 255.386 375 L 244.802 375 241.381 373.377 L 237.961 371.753 235.737 368.631 L 233.514 365.509 233.144 358.004 L 232.775 350.500 229.534 346 L 226.293 341.500 223.707 337 L 221.121 332.500 218.104 323.500 L 215.087 314.500 148.008 314.243 L 80.929 313.986 81.533 319.243 M 241.218 383.663 L 237.936 385.281 235.718 388.390 L 233.500 391.500 233.500 441 L 233.500 490.500 235.730 493.627 L 237.961 496.753 241.381 498.377 L 244.802 500 292.500 500 L 340.198 500 343.619 498.377 L 347.039 496.753 349.270 493.627 L 351.500 490.500 351.500 441 L 351.500 391.500 349.270 388.373 L 347.039 385.247 343.619 383.623 L 340.198 382 292.349 382.023 L 244.500 382.046 241.218 383.663 M 264 441 L 264 469 293 469 L 322 469 322 441 L 322 413 293 413 L 264 413 264 441" stroke="none" fill="#010001" fill-rule="evenodd"/></svg>